<?xml version="1.0" encoding="UTF-8"?>
<svg width="2400" height="1080" version="1.1" viewBox="0 0 635 285.75" xmlns="http://www.w3.org/2000/svg" xmlns:cc="http://creativecommons.org/ns#" xmlns:dc="http://purl.org/dc/elements/1.1/" xmlns:rdf="http://www.w3.org/1999/02/22-rdf-syntax-ns#">
 <defs>
  <clipPath id="clipPath2417-8">
   <path d="m0.097168 423.37h600.71v-176.48h-600.71z"/>
  </clipPath>
  <clipPath id="clipPath2437-8">
   <path d="m350.58 423.36h105.54v-75.865h-105.54z"/>
  </clipPath>
  <clipPath id="clipPath2453-3">
   <path d="m-0.65381 413.49h351.24v-166.6h-351.24z"/>
  </clipPath>
  <clipPath id="clipPath2469-1">
   <path d="m456.13 407.55h143.93v-49.58h-143.93z"/>
  </clipPath>
  <clipPath id="clipPath2483-8">
   <path d="m0.097168 433.17h600.71v-156.61h-600.71z"/>
  </clipPath>
  <clipPath id="clipPath2497-4">
   <path d="m-0.32568 408.95h600.31v-176.48h-600.31z"/>
  </clipPath>
  <clipPath id="clipPath2511-2">
   <path d="m-0.32568 424.44h600.31v-156.61h-600.31z"/>
  </clipPath>
  <clipPath id="clipPath3385-5">
   <path d="m-0.30762 450.36h600.31v-156.61h-600.31z"/>
  </clipPath>
 </defs>
 <metadata>
  <rdf:RDF>
   <cc:Work rdf:about="">
    <dc:format>image/svg+xml</dc:format>
    <dc:type rdf:resource="http://purl.org/dc/dcmitype/StillImage"/>
    <dc:title/>
   </cc:Work>
  </rdf:RDF>
 </metadata>
 <g transform="matrix(1.1136 0 0 -1.1136 -16.42 521.07)">
  <g clip-path="url(#clipPath2417-8)">
   <path d="m600.81 403.76c-17.853 4.629-35.258 4.701-50.508 1.903-20.429-3.756-38.182-12.221-53.642-21.369-14.341-8.491-26.67-17.617-38.348-24.972-10.311-6.498-20.143-11.56-29.339-11.818-8.584-0.229-17.227 4.776-24.225 12.526-16.669 18.487-26.012 46.136-44.046 52.91-15.416 5.749-35.635-13.532-57.789-35.67-13.15-13.133-27.76-27.574-45.405-41.499-19.412-15.317-42.871-30.346-71.866-41.08-16.065-5.941-34.111-10.627-54.093-13.019-21.912-2.61-46.576-2.488-73.388 1.933-18.317 3.028-37.818 8.112-58.065 15.701v-46.935c13.906-2.424 27.26-3.988 40.013-4.793 16.389-1.053 31.859-0.859 46.348 0.24 26.611 2.035 50.258 7.242 70.949 14.104 18.947 6.291 35.761 14.074 50.673 22.508 27.059 15.304 48.686 33.111 66.841 50.463 16.565 15.842 30.457 31.601 43.185 45.885 21.683 24.352 41.454 45.701 58.657 42.207 18.286-3.763 29.831-29.63 46.267-48.445 7.232-8.266 15.541-14.423 24.398-16.1 8.968-1.689 19.079 0.699 29.65 4.334 11.813 4.064 24.517 9.536 38.997 13.384 15.663 4.155 33.674 6.344 52.626 2.57 10.448-2.091 21.378-6.178 32.11-12.379z" fill="#0a50a1"/>
  </g>
 </g>
 <path d="m130.07 207.4c22.252-2.6637 42.348-7.882 60.237-14.498 32.289-11.953 58.412-28.689 80.029-45.746 19.649-15.507 35.919-31.588 50.563-46.213 19.587-19.574 37.812-37.125 53.085-40.329 10.31-8.0279 20.056-12.427 29.153-10.579 20.363 4.1904 33.22 32.996 51.522 53.948 8.0535 9.2049 17.306 16.061 27.169 17.929 3.1136 0.58686 6.3508 0.73051 9.6871 0.53007 0.80958-0.49667 1.6203-0.99779 2.4343-1.5122 13.005-8.1905 26.734-18.353 42.704-27.809 17.216-10.187 36.986-19.614 59.735-23.796 16.745-3.0735 35.821-3.029 55.41 1.9132v-217.57h-668.95v333.78c22.846 8.6259 44.848 14.39 65.497 17.803 29.858 4.9232 57.323 5.059 81.724 2.1526" fill="#0a50a1"/>
 <path d="m481.83 121.91c-9.8631-1.8675-19.116-8.7239-27.169-17.929-18.303-20.952-31.159-49.757-51.522-53.948-9.0969-1.8474-18.843 2.5512-29.153 10.579 3.9633-0.83185 7.7305-0.7127 11.268 0.6069 20.082 7.5435 30.487 38.333 49.049 58.92 7.7929 8.6303 17.418 14.204 26.977 13.949 9.5145-0.26839 19.64-5.1548 30.237-11.648-3.3363 0.20044-6.5735 0.0568-9.6871-0.53007" fill="#00a0c6"/>
 <g transform="matrix(1.1136 0 0 -1.1136 -16.42 521.07)">
  <g clip-path="url(#clipPath2437-8)">
   <path d="m447.43 358.44c-8.857 1.677-17.166 7.834-24.398 16.1-16.436 18.815-27.981 44.682-46.267 48.445-8.169 1.659-16.921-2.291-26.179-9.5 3.559 0.747 6.942 0.64 10.119-0.545 18.034-6.774 27.377-34.423 44.046-52.91 6.998-7.75 15.641-12.755 24.225-12.526 8.544 0.241 17.637 4.629 27.153 10.46-2.996-0.18-5.903-0.051-8.699 0.476" fill="#0a50a1"/>
  </g>
 </g>
 <path d="m79.859 245.1c29.634-2.2662 55.967-8.0646 79.008-15.706 21.099-7.0056 39.823-15.673 56.429-25.065 30.133-17.042 54.216-36.872 74.434-56.195 18.447-17.642 33.917-35.191 48.09-51.097 12.677-14.238 24.77-27.548 36.167-36.422-15.273 3.2038-33.498 20.755-53.085 40.329-14.644 14.625-30.913 30.706-50.563 46.213-21.617 17.057-47.741 33.793-80.029 45.746-17.89 6.6158-37.986 11.834-60.237 14.498-24.401 2.9065-51.867 2.7706-81.724-2.1526-20.649-3.4132-42.651-9.1771-65.497-17.803v52.435c15.785 2.7817 30.938 4.5746 45.394 5.4878 18.251 1.1726 35.478 0.95658 51.613-0.26726" fill="#00a0c6"/>
 <g transform="matrix(1.1136 0 0 -1.1136 -16.42 521.07)">
  <g clip-path="url(#clipPath2453-3)">
   <path d="m86.458 247.82c26.611 2.035 50.258 7.242 70.949 14.104 18.947 6.291 35.761 14.074 50.673 22.508 27.059 15.304 48.686 33.111 66.841 50.463 16.565 15.842 30.457 31.601 43.185 45.885 11.384 12.786 22.243 24.738 32.478 32.707-13.715-2.877-30.081-18.638-47.67-36.215-13.15-13.133-27.76-27.574-45.405-41.499-19.412-15.317-42.871-30.346-71.866-41.08-16.065-5.941-34.111-10.627-54.093-13.019-21.912-2.61-46.576-2.488-73.388 1.933-18.543 3.065-38.3 8.241-58.816 15.987v-47.086c14.175-2.498 27.782-4.108 40.764-4.928 16.389-1.053 31.859-0.859 46.348 0.24" fill="#0a50a1"/>
  </g>
 </g>
 <path d="m596.39 69.324c-22.75 4.1826-42.519 13.609-59.735 23.796-15.97 9.4555-29.699 19.618-42.704 27.809-0.81404 0.51446-1.6247 1.0156-2.4343 1.5122 7.3686-0.44321 15.228-2.5713 23.331-5.3564 13.155-4.5256 27.302-10.619 43.427-14.904 17.442-4.627 37.499-7.0646 58.604-2.8619 11.364 2.2728 23.238 6.6749 34.922 13.314v-41.395c-19.589-4.9421-38.665-4.9867-55.41-1.9132" fill="#00a0c6"/>
 <g transform="matrix(1.1136 0 0 -1.1136 -16.42 521.07)">
  <g clip-path="url(#clipPath2469-1)">
   <path d="m550.3 405.67c-20.429-3.756-38.182-12.221-53.642-21.369-14.341-8.491-26.67-17.617-38.348-24.972-0.731-0.462-1.459-0.912-2.186-1.358 6.617 0.398 13.675 2.309 20.951 4.81 11.813 4.064 24.517 9.536 38.997 13.384 15.663 4.155 33.674 6.344 52.626 2.57 10.205-2.041 20.868-5.994 31.36-11.956v37.173c-17.591 4.438-34.721 4.478-49.758 1.718" fill="#0a50a1"/>
  </g>
 </g>
 <g transform="matrix(1.1136 0 0 -1.1136 -16.42 521.07)">
  <g clip-path="url(#clipPath2483-8)">
   <path d="m600.81 433.06c-26.656 1.093-50.712-6.014-70.572-15.809-20.04-9.888-36.789-22.664-51.564-35.3-13.691-11.714-25.494-23.286-36.889-32.773-9.978-8.302-19.593-14.94-28.885-15.967-8.446-0.922-17.306 4.417-24.059 12.99-16.836 21.414-23.794 52.806-41.739 63.406-13.481 7.918-34.226-9.986-56.729-30.521-13.445-12.274-28.618-25.607-47.052-37.781-20.311-13.408-45.084-25.709-75.044-32.078-16.668-3.538-35.227-5.27-55.325-4.132-22.079 1.265-46.387 6.036-71.817 15.649-13.407 5.069-27.175 11.502-41.039 19.414v-46.055c21.286-7.485 41.691-12.282 60.751-14.912 26.885-3.731 51.515-3.235 73.343-0.124 19.914 2.842 37.855 7.895 53.816 14.129 28.822 11.269 52.091 26.636 71.375 42.187 17.534 14.146 32.073 28.729 45.177 41.987 22.1 22.371 42.254 41.862 57.891 36.389 18.046-6.361 27.658-33.678 44.303-52.019 7.026-7.731 15.636-12.79 24.247-12.708 9.183 0.096 19.047 4.913 29.397 11.137 11.707 7.041 24.096 15.803 38.494 23.828 15.518 8.644 33.364 16.475 53.737 19.395 14.676 2.096 31.268 1.375 48.183-3.538z" fill="#0a50a1"/>
  </g>
 </g>
 <g transform="matrix(1.1136 0 0 -1.1136 -15.245 519.17)">
  <g clip-path="url(#clipPath2497-4)">
   <path d="m599.98 376.54c-1.976 1.15-3.956 2.236-5.936 3.256-26.203 13.496-53.147 15.554-75.472 11.456-20.427-3.755-38.182-12.22-53.641-21.368-14.341-8.492-26.67-17.617-38.349-24.972-10.311-6.498-20.144-11.56-29.34-11.819-8.584-0.228-17.225 4.777-24.224 12.527-16.669 18.487-26.01 46.136-44.045 52.91-15.416 5.749-35.636-13.532-57.788-35.67-13.151-13.134-27.761-27.574-45.407-41.499-19.411-15.317-42.87-30.345-71.866-41.08-16.065-5.941-34.111-10.627-54.094-13.019-21.91-2.612-46.575-2.489-73.387 1.931-8.67 1.434-17.606 3.328-26.76 5.731v-41.096c2.933-0.26 5.836-0.478 8.708-0.66 16.389-1.053 31.859-0.859 46.347 0.24 26.612 2.035 50.259 7.242 70.95 14.104 18.948 6.291 35.761 14.072 50.674 22.508 27.058 15.304 48.686 33.111 66.841 50.463 16.565 15.842 30.458 31.6 43.184 45.885 21.683 24.351 41.456 45.7 58.656 42.207 18.287-3.764 29.831-29.63 46.269-48.445 7.23-8.267 15.54-14.423 24.398-16.1 8.968-1.69 19.078 0.698 29.65 4.334 11.811 4.064 24.516 9.536 38.997 13.383 15.665 4.156 33.673 6.345 52.626 2.571 20.887-4.179 43.695-16.339 63.009-37.415z" fill="#00a0c6"/>
  </g>
 </g>
 <g transform="matrix(1.1136 0 0 -1.1136 -16.42 521.07)">
  <g clip-path="url(#clipPath2511-2)">
   <path d="m599.98 424.4c-25.745 0.608-48.996-6.371-68.284-15.885-20.043-9.888-36.79-22.663-51.564-35.299-13.693-11.714-25.494-23.287-36.889-32.773-9.98-8.303-19.593-14.941-28.885-15.968-8.448-0.922-17.307 4.418-24.059 12.991-16.836 21.413-23.796 52.806-41.741 63.405-13.48 7.918-34.225-9.986-56.729-30.521-13.443-12.274-28.617-25.607-47.051-37.781-20.311-13.406-45.084-25.708-75.045-32.076-16.668-3.54-35.226-5.27-55.324-4.134-22.079 1.266-46.387 6.037-71.817 15.649-14.013 5.3-28.421 12.087-42.921 20.497v-46.468c21.965-7.869 43.012-12.873 62.633-15.582 26.885-3.73 51.515-3.234 73.342-0.123 19.915 2.842 37.856 7.895 53.817 14.129 28.821 11.269 52.092 26.635 71.375 42.187 17.533 14.145 32.072 28.727 45.177 41.988 22.101 22.369 42.255 41.86 57.892 36.388 18.046-6.362 27.657-33.679 44.302-52.019 7.025-7.731 15.637-12.791 24.248-12.709 9.182 0.097 19.045 4.913 29.395 11.138 11.708 7.041 24.098 15.803 38.496 23.828 15.516 8.643 33.364 16.475 53.737 19.395 14.012 2.002 29.773 1.434 45.895-2.899z" fill="#0f298f"/>
  </g>
 </g>
 <g fill="none">
  <g stroke="#fff" stroke-width=".1225">
   <path d="m-17.155 162.23v116.66"/>
   <path d="m194.63 151.79c-27.177 8.3864-54.25 18.726-81.252 30.245"/>
   <path d="m199.87 154.03c-27.097 6.0034-54.125 13.993-81.083 23.228"/>
   <path d="m204.95 156.3c-26.939 3.6014-53.84 9.2462-80.681 16.173"/>
   <path d="m209.84 158.6c-26.699 1.2405-53.402 4.5-80.047 9.1069"/>
   <path d="m214.58 160.9c-26.388-1.1192-52.812-0.21158-79.191 2.0568"/>
  </g>
  <g stroke="#0071bc" stroke-width=".20936">
   <path d="m648.67 114.84s1.0902 0.51448 3.0624 1.4432"/>
   <path d="m644.8 118.33s2.5579 1.0757 6.9299 2.9165"/>
   <path d="m641.08 121.82s4.0368 1.5022 10.651 3.9677"/>
   <path d="m637.5 125.32s5.5123 1.7951 14.233 4.6326"/>
   <path d="m634.07 128.81s6.9733 1.9521 17.668 4.9421"/>
   <path d="m630.77 132.29s8.4232 1.98 20.966 4.9265"/>
   <path d="m627.62 135.76s9.8408 1.8797 24.116 4.6069"/>
   <path d="m624.61 139.2s11.233 1.6626 27.126 4.0123"/>
   <path d="m621.74 142.61s12.591 1.3263 29.998 3.1592"/>
   <path d="m619 145.99s13.918 0.8775 32.731 2.0635"/>
   <path d="m616.41 149.33s15.206 0.31849 35.323 0.74165"/>
   <path d="m613.95 152.63s16.457-0.343 37.781-0.79177"/>
   <path d="m611.63 155.87s17.674-1.1136 40.107-2.5267"/>
   <path d="m609.44 159.06s18.846-1.9844 42.299-4.4521"/>
   <path d="m607.37 162.18s19.984-2.9555 44.362-6.5602"/>
   <path d="m605.43 165.24s21.087-4.029 46.3-8.8441"/>
   <path d="m603.62 168.22s22.153-5.2027 48.114-11.303"/>
   <path d="m601.93 171.13s23.184-6.4822 49.809-13.927"/>
   <path d="m600.35 173.95s24.187-7.8709 51.388-16.724"/>
   <path d="m598.88 176.69s25.162-9.3709 52.852-19.686"/>
   <path d="m597.53 179.33s26.109-10.993 54.207-22.823"/>
   <path d="m596.28 181.88s27.039-12.743 55.457-26.137"/>
   <path d="m595.13 184.32s27.95-14.635 56.603-29.638"/>
   <path d="m594.08 186.66s28.856-16.687 57.654-33.34"/>
   <path d="m593.12 188.89s29.764-18.918 58.614-37.257"/>
   <path d="m592.25 191.01s30.679-21.356 59.485-41.409"/>
   <path d="m591.46 193s31.618-24.035 60.273-45.82"/>
   <path d="m590.75 194.89s32.594-27.007 60.981-50.529"/>
   <path d="m590.12 196.64s33.628-30.331 61.617-55.572"/>
   <path d="m589.55 198.27s34.756-34.089 62.186-60.996"/>
   <path d="m589.04 199.77s36.012-38.41 62.693-66.868"/>
   <path d="m588.59 201.14s37.46-43.465 63.142-73.269"/>
   <path d="m588.19 202.38s39.201-49.534 63.54-80.295"/>
   <path d="m587.84 203.48s41.409-57.085 63.891-88.081"/>
   <path d="m587.53 204.44s44.462-67.03 64.203-96.789"/>
   <path d="m587.25 205.26s49.453-81.787 64.481-106.64"/>
   <path d="m587 205.95 63.947-116.51"/>
   <path d="m586.78 206.49 59.018-119.09"/>
   <path d="m586.57 206.89 53.991-121.46"/>
   <path d="m586.37 207.14 48.865-123.62"/>
   <path d="m586.17 207.25 43.654-125.56"/>
   <path d="m585.98 207.22 38.364-127.28"/>
   <path d="m585.78 207.05 33.01-128.78"/>
   <path d="m585.56 206.73 27.599-130.05"/>
   <path d="m585.32 206.27 22.135-131.09"/>
   <path d="m585.06 205.67 16.637-131.9"/>
   <path d="m584.77 204.93 11.108-132.49"/>
   <path d="m584.44 204.05 5.5579-132.84"/>
   <path d="m584.07 203.04v-132.95"/>
   <path d="m583.65 201.89-5.5579-132.83"/>
   <path d="m583.17 200.6-11.106-132.49"/>
   <path d="m582.64 199.19-16.636-131.91"/>
   <path d="m582.04 197.65-22.136-131.09"/>
   <path d="m581.37 195.98-27.597-130.05"/>
   <path d="m580.63 194.19-33.011-128.78"/>
   <path d="m579.81 192.29-38.364-127.28"/>
   <path d="m578.9 190.26-43.652-125.56"/>
   <path d="m577.9 188.13-48.865-123.62"/>
   <path d="m576.81 185.89-53.989-121.46"/>
   <path d="m575.61 183.54-59.02-119.09"/>
   <path d="m574.32 181.1-63.945-116.51"/>
   <path d="m572.92 178.56-68.761-113.72"/>
   <path d="m571.4 175.93-73.457-110.74"/>
   <path d="m569.77 173.21-78.021-107.56"/>
   <path d="m568.03 170.42-82.451-104.19"/>
   <path d="m566.15 167.55-86.731-100.64"/>
   <path d="m564.16 164.6-90.863-96.919"/>
   <path d="m562.04 161.6-94.838-93.023"/>
   <path d="m559.79 158.53-98.644-88.964"/>
   <path d="m557.41 155.4-102.28-84.746"/>
   <path d="m554.89 152.24-105.73-80.383"/>
   <path d="m552.23 149.02-108.99-75.878"/>
   <path d="m549.44 145.77-112.08-71.241"/>
   <path d="m546.51 142.49-114.95-66.476"/>
   <path d="m543.44 139.18-117.63-61.596"/>
   <path d="m540.22 135.85-120.1-56.609"/>
   <path d="m536.86 132.51-122.37-51.52"/>
   <path d="m533.36 129.16-124.41-46.343"/>
   <path d="m529.72 125.81-126.24-41.085"/>
   <path d="m525.93 122.47-127.84-35.755"/>
   <path d="m522 119.13-129.23-30.36"/>
   <path d="m517.93 115.81-130.39-24.911"/>
   <path d="m513.72 112.51-131.31-19.421"/>
   <path d="m509.36 109.24-132.01-13.898"/>
   <path d="m504.87 106.01-132.47-8.3464"/>
   <path d="m500.24 102.81-132.71-2.784"/>
   <path d="m495.48 99.664-132.71 2.7851"/>
   <path d="m490.57 96.565-132.47 8.3486"/>
   <path d="m485.54 93.523-132.01 13.899"/>
   <path d="m480.38 90.545-131.31 19.423"/>
   <path d="m475.1 87.632-130.39 24.914"/>
   <path d="m469.69 84.793-129.23 30.361"/>
   <path d="m464.16 82.033-127.85 35.754"/>
   <path d="m458.51 79.355-126.24 41.085"/>
   <path d="m452.75 76.763-124.41 46.345"/>
   <path d="m446.88 74.267-122.36 51.521"/>
   <path d="m440.91 71.866-120.11 56.608"/>
   <path d="m434.83 69.566-117.63 61.597"/>
   <path d="m428.66 67.371-114.95 66.477"/>
   <path d="m422.39 65.287-112.07 71.24"/>
   <path d="m416.04 63.314-109 75.879"/>
   <path d="m409.6 61.459-105.73 80.385"/>
   <path d="m403.09 59.724-102.27 84.75"/>
   <path d="m396.5 58.114-98.643 88.964"/>
   <path d="m389.85 56.627-94.834 93.024"/>
   <path d="m383.13 55.273-90.863 96.918"/>
   <path d="m376.35 54.048-86.732 100.65"/>
   <path d="m369.53 52.957-82.448 104.2"/>
   <path d="m362.66 52.001-78.019 107.56"/>
   <path d="m355.74 51.184-73.455 110.74"/>
   <path d="m348.8 50.507-68.761 113.72"/>
   <path d="m341.82 49.968-63.945 116.51"/>
   <path d="m334.83 49.573-59.02 119.09"/>
   <path d="m327.81 49.318-53.989 121.46"/>
   <path d="m320.79 49.209-48.862 123.62"/>
   <path d="m313.76 49.24-43.652 125.56"/>
   <path d="m306.73 49.417-38.365 127.28"/>
   <path d="m299.71 49.736-33.01 128.78"/>
   <path d="m292.7 50.197-27.597 130.05"/>
   <path d="m285.71 50.801-22.135 131.09"/>
   <path d="m278.75 51.547-16.635 131.9"/>
   <path d="m271.82 52.432-11.107 132.49"/>
   <path d="m264.92 53.456-5.5579 132.84"/>
   <path d="m258.07 54.616 1e-3 132.95"/>
   <path d="m251.27 55.911 5.559 132.84"/>
   <path d="m244.52 57.34 11.107 132.49"/>
   <path d="m237.83 58.898 16.636 131.9"/>
   <path d="m231.2 60.585 22.136 131.09"/>
   <path d="m224.64 62.396 27.598 130.05"/>
   <path d="m218.16 64.33 33.011 128.78"/>
   <path d="m211.76 66.382 38.365 127.28"/>
   <path d="m205.45 68.551 43.654 125.56"/>
   <path d="m199.22 70.829 48.864 123.62"/>
   <path d="m193.09 73.215 53.989 121.46"/>
   <path d="m187.06 75.704 59.02 119.09"/>
   <path d="m181.13 78.296 63.947 116.51"/>
   <path d="m175.31 80.979 68.761 113.72"/>
   <path d="m169.6 83.754 73.456 110.74"/>
   <path d="m164.01 86.615 78.02 107.56"/>
   <path d="m158.53 89.555 82.449 104.19"/>
   <path d="m153.18 92.572 86.733 100.65"/>
   <path d="m147.95 95.66 90.865 96.918"/>
   <path d="m142.84 98.813 94.837 93.023"/>
   <path d="m137.87 102.03 98.642 88.961"/>
   <path d="m133.03 105.29 102.28 84.748"/>
   <path d="m128.32 108.61 105.73 80.383"/>
   <path d="m123.75 111.97 109 75.878"/>
   <path d="m119.32 115.36 112.07 71.24"/>
   <path d="m115.03 118.79 114.95 66.476"/>
   <path d="m110.88 122.24 117.63 61.597"/>
   <path d="m106.87 125.71 120.1 56.609"/>
   <path d="m103.01 129.2 122.36 51.52"/>
   <path d="m99.282 132.69 124.41 46.344"/>
   <path d="m95.703 136.19 126.24 41.085"/>
   <path d="m92.265 139.68 127.85 35.755"/>
   <path d="m88.97 143.16 129.23 30.36"/>
   <path d="m85.819 146.63 130.39 24.913"/>
   <path d="m82.808 150.07 131.31 19.424"/>
   <path d="m79.938 153.48 132.01 13.895"/>
   <path d="m77.206 156.86 132.47 8.3486"/>
   <path d="m74.613 160.2 132.71 2.7851"/>
   <path d="m72.154 163.5 132.71-2.7851"/>
   <path d="m69.83 166.74 132.48-8.3486"/>
   <path d="m67.636 169.93 132.01-13.895"/>
   <path d="m65.573 173.05 131.31-19.422"/>
   <path d="m63.635 176.11 130.39-24.911"/>
   <path d="m61.821 179.09 129.23-30.359"/>
   <path d="m60.126 182 127.85-35.752"/>
   <path d="m58.549 184.82 126.24-41.083"/>
   <path d="m57.085 187.56 124.41-46.342"/>
   <path d="m55.73 190.2 122.36-51.519"/>
   <path d="m54.479 192.74 120.11-56.607"/>
   <path d="m53.332 195.19 117.63-61.595"/>
   <path d="m52.28 197.53 114.95-66.477"/>
   <path d="m51.323 199.76 112.07-71.239"/>
   <path d="m50.451 201.88 109-75.876"/>
   <path d="m49.664 203.88 105.73-80.382"/>
   <path d="m48.955 205.76 102.28-84.746"/>
   <path d="m48.318 207.51 98.644-88.963"/>
   <path d="m47.75 209.14 94.837-93.022"/>
   <path d="m47.242 210.64 90.866-96.917"/>
   <path d="m46.794 212.01 86.732-100.65"/>
   <path d="m46.396 213.25 82.45-104.2"/>
   <path d="m46.044 214.35 78.021-107.56"/>
   <path d="m45.732 215.31 73.456-110.74"/>
   <path d="m45.455 216.13 68.762-113.72"/>
   <path d="m45.205 216.82 63.947-116.5"/>
   <path d="m44.978 217.36 59.02-119.09"/>
   <path d="m44.769 217.76 53.99-121.46"/>
   <path d="m44.569 218.01 48.864-123.62"/>
   <path d="m44.374 218.12 43.653-125.56"/>
   <path d="m44.178 218.09 38.365-127.28"/>
   <path d="m43.976 217.92 33.01-128.78"/>
   <path d="m43.759 217.6 27.598-130.05"/>
   <path d="m43.524 217.14 22.137-131.09"/>
   <path d="m43.262 216.54 16.637-131.9"/>
   <path d="m42.97 215.8 11.108-132.49"/>
   <path d="m42.642 214.93 5.5579-132.84"/>
   <path d="m42.27 213.91v-132.95"/>
   <path d="m41.849 212.76-5.5579-132.83"/>
   <path d="m41.375 211.48-11.107-132.49"/>
   <path d="m40.842 210.06-16.637-131.9"/>
   <path d="m40.244 208.52-22.136-131.09"/>
   <path d="m39.576 206.85-27.598-130.05"/>
   <path d="m38.832 205.06-33.01-128.78"/>
   <path d="m38.008 203.16-38.365-127.28"/>
   <path d="m37.1 201.13-43.654-125.56"/>
   <path d="m36.1 199-48.864-123.62"/>
   <path d="m35.007 196.76s-42.154-94.834-51.966-116.91"/>
   <path d="m33.814 194.41s-34.539-69.688-50.773-102.45"/>
   <path d="m32.518 191.97s-30.613-55.779-49.477-90.146"/>
   <path d="m31.116 189.43s-27.825-46.018-48.075-79.508"/>
   <path d="m29.6 186.8s-25.587-38.576-46.559-70.193"/>
   <path d="m27.972 184.08s-23.667-32.628-44.931-61.942"/>
   <path d="m26.224 181.29s-21.939-27.724-43.183-54.572"/>
   <path d="m24.356 178.42s-20.338-23.598-41.315-47.94"/>
   <path d="m22.362 175.48s-18.814-20.07-39.321-41.941"/>
   <path d="m20.242 172.47s-17.345-17.013-37.201-36.489"/>
   <path d="m17.99 169.4s-15.909-14.346-34.949-31.519"/>
   <path d="m15.607 166.28s-14.491-12.009-32.566-26.985"/>
   <path d="m13.089 163.11s-13.085-9.9466-30.048-22.843"/>
   <path d="m10.434 159.89s-11.68-8.1303-27.393-19.07"/>
   <path d="m7.6414 156.64s-10.274-6.5312-24.6-15.637"/>
   <path d="m4.7082 153.36s-8.862-5.1236-21.667-12.529"/>
   <path d="m1.6347 150.05s-7.4477-3.8998-18.594-9.7372"/>
   <path d="m-1.5802 146.72s-6.0256-2.8396-15.379-7.2472"/>
   <path d="m-4.9366 143.38s-4.6025-1.9365-12.022-5.0602"/>
   <path d="m-8.4388 140.03s-3.1782-1.1838-8.5201-3.1748"/>
   <path d="m-12.082 136.68s-1.7639-0.57462-4.8764-1.5869"/>
   <path d="m-15.869 133.34s-0.37751-0.1035-1.0902-0.30401"/>
  </g>
 </g>
 <g transform="matrix(1.1136 0 0 -1.1136 -16.42 521.07)">
  <g clip-path="url(#clipPath3385-5)">
   <path d="m600 450.32c-25.743 0.608-48.993-6.37-68.284-15.883-20.04-9.888-36.789-22.664-51.563-35.3-13.692-11.714-25.494-23.286-36.89-32.772-9.979-8.304-19.591-14.942-28.883-15.968-8.448-0.923-17.308 4.417-24.06 12.99-16.838 21.413-23.796 52.806-41.741 63.406-13.481 7.918-34.225-9.986-56.728-30.521-13.445-12.274-28.618-25.606-47.052-37.781-20.311-13.407-45.084-25.709-75.045-32.077-16.668-3.539-35.226-5.272-55.324-4.133-22.079 1.266-46.387 6.037-71.817 15.648-14.013 5.3-28.421 12.088-42.921 20.497v-46.468c21.966-7.869 43.012-12.874 62.633-15.582 26.886-3.73 51.515-3.232 73.343-0.123 19.915 2.843 37.855 7.895 53.816 14.129 28.822 11.27 52.092 26.635 71.376 42.187 17.533 14.145 32.071 28.729 45.174 41.987 22.102 22.371 42.258 41.862 57.893 36.389 18.046-6.361 27.658-33.679 44.302-52.019 7.027-7.73 15.638-12.789 24.25-12.708 9.179 0.097 19.044 4.913 29.395 11.137 11.708 7.042 24.096 15.803 38.493 23.828 15.519 8.645 33.366 16.476 53.737 19.395 14.015 2.002 29.776 1.434 45.896-2.899z" fill="#13007c"/>
  </g>
 </g>
</svg>
