<?xml version="1.0" encoding="UTF-8"?>
<svg width="2400" height="1080" version="1.1" viewBox="0 0 635 285.75" xmlns="http://www.w3.org/2000/svg" xmlns:cc="http://creativecommons.org/ns#" xmlns:dc="http://purl.org/dc/elements/1.1/" xmlns:rdf="http://www.w3.org/1999/02/22-rdf-syntax-ns#">
 <defs>
  <clipPath id="clipPath2417-8">
   <path d="m0.097168 423.37h600.71v-176.48h-600.71z"/>
  </clipPath>
  <clipPath id="clipPath2437-8">
   <path d="m350.58 423.36h105.54v-75.865h-105.54z"/>
  </clipPath>
  <clipPath id="clipPath2453-3">
   <path d="m-0.65381 413.49h351.24v-166.6h-351.24z"/>
  </clipPath>
  <clipPath id="clipPath2469-1">
   <path d="m456.13 407.55h143.93v-49.58h-143.93z"/>
  </clipPath>
  <clipPath id="clipPath2483-8">
   <path d="m0.097168 433.17h600.71v-156.61h-600.71z"/>
  </clipPath>
  <clipPath id="clipPath2497-4">
   <path d="m-0.32568 408.95h600.31v-176.48h-600.31z"/>
  </clipPath>
  <clipPath id="clipPath2511-2">
   <path d="m-0.32568 424.44h600.31v-156.61h-600.31z"/>
  </clipPath>
  <clipPath id="clipPath3385-5">
   <path d="m-0.30762 450.36h600.31v-156.61h-600.31z"/>
  </clipPath>
 </defs>
 <metadata>
  <rdf:RDF>
   <cc:Work rdf:about="">
    <dc:format>image/svg+xml</dc:format>
    <dc:type rdf:resource="http://purl.org/dc/dcmitype/StillImage"/>
    <dc:title/>
   </cc:Work>
  </rdf:RDF>
 </metadata>
 <g transform="matrix(1.1136 0 0 -1.1136 -16.42 521.07)">
  <g clip-path="url(#clipPath2417-8)">
   <path d="m600.81 403.76c-17.853 4.629-35.258 4.701-50.508 1.903-20.429-3.756-38.182-12.221-53.642-21.369-14.341-8.491-26.67-17.617-38.348-24.972-10.311-6.498-20.143-11.56-29.339-11.818-8.584-0.229-17.227 4.776-24.225 12.526-16.669 18.487-26.012 46.136-44.046 52.91-15.416 5.749-35.635-13.532-57.789-35.67-13.15-13.133-27.76-27.574-45.405-41.499-19.412-15.317-42.871-30.346-71.866-41.08-16.065-5.941-34.111-10.627-54.093-13.019-21.912-2.61-46.576-2.488-73.388 1.933-18.317 3.028-37.818 8.112-58.065 15.701v-46.935c13.906-2.424 27.26-3.988 40.013-4.793 16.389-1.053 31.859-0.859 46.348 0.24 26.611 2.035 50.258 7.242 70.949 14.104 18.947 6.291 35.761 14.074 50.673 22.508 27.059 15.304 48.686 33.111 66.841 50.463 16.565 15.842 30.457 31.601 43.185 45.885 21.683 24.352 41.454 45.701 58.657 42.207 18.286-3.763 29.831-29.63 46.267-48.445 7.232-8.266 15.541-14.423 24.398-16.1 8.968-1.689 19.079 0.699 29.65 4.334 11.813 4.064 24.517 9.536 38.997 13.384 15.663 4.155 33.674 6.344 52.626 2.57 10.448-2.091 21.378-6.178 32.11-12.379z" fill="#0a50a1"/>
  </g>
 </g>
 <path d="m130.07 207.4c22.252-2.6637 42.348-7.882 60.237-14.498 32.289-11.953 58.412-28.689 80.029-45.746 19.649-15.507 35.919-31.588 50.563-46.213 19.587-19.574 37.812-37.125 53.085-40.329 10.31-8.0279 20.056-12.427 29.153-10.579 20.363 4.1904 33.22 32.996 51.522 53.948 8.0535 9.2049 17.306 16.061 27.169 17.929 3.1136 0.58686 6.3508 0.73051 9.6871 0.53007 0.80958-0.49667 1.6203-0.99779 2.4343-1.5122 13.005-8.1905 26.734-18.353 42.704-27.809 17.216-10.187 36.986-19.614 59.735-23.796 16.745-3.0735 35.821-3.029 55.41 1.9132v-217.57h-668.95v333.78c22.846 8.6259 44.848 14.39 65.497 17.803 29.858 4.9232 57.323 5.059 81.724 2.1526" fill="#0a50a1"/>
 <path d="m481.83 121.91c-9.8631-1.8675-19.116-8.7239-27.169-17.929-18.303-20.952-31.159-49.757-51.522-53.948-9.0969-1.8474-18.843 2.5512-29.153 10.579 3.9633-0.83185 7.7305-0.7127 11.268 0.6069 20.082 7.5435 30.487 38.333 49.049 58.92 7.7929 8.6303 17.418 14.204 26.977 13.949 9.5145-0.26839 19.64-5.1548 30.237-11.648-3.3363 0.20044-6.5735 0.0568-9.6871-0.53007" fill="#00a0c6"/>
 <g transform="matrix(1.1136 0 0 -1.1136 -16.42 521.07)">
  <g clip-path="url(#clipPath2437-8)">
   <path d="m447.43 358.44c-8.857 1.677-17.166 7.834-24.398 16.1-16.436 18.815-27.981 44.682-46.267 48.445-8.169 1.659-16.921-2.291-26.179-9.5 3.559 0.747 6.942 0.64 10.119-0.545 18.034-6.774 27.377-34.423 44.046-52.91 6.998-7.75 15.641-12.755 24.225-12.526 8.544 0.241 17.637 4.629 27.153 10.46-2.996-0.18-5.903-0.051-8.699 0.476" fill="#0a50a1"/>
  </g>
 </g>
 <path d="m79.859 245.1c29.634-2.2662 55.967-8.0646 79.008-15.706 21.099-7.0056 39.823-15.673 56.429-25.065 30.133-17.042 54.216-36.872 74.434-56.195 18.447-17.642 33.917-35.191 48.09-51.097 12.677-14.238 24.77-27.548 36.167-36.422-15.273 3.2038-33.498 20.755-53.085 40.329-14.644 14.625-30.913 30.706-50.563 46.213-21.617 17.057-47.741 33.793-80.029 45.746-17.89 6.6158-37.986 11.834-60.237 14.498-24.401 2.9065-51.867 2.7706-81.724-2.1526-20.649-3.4132-42.651-9.1771-65.497-17.803v52.435c15.785 2.7817 30.938 4.5746 45.394 5.4878 18.251 1.1726 35.478 0.95658 51.613-0.26726" fill="#00a0c6"/>
 <g transform="matrix(1.1136 0 0 -1.1136 -16.42 521.07)">
  <g clip-path="url(#clipPath2453-3)">
   <path d="m86.458 247.82c26.611 2.035 50.258 7.242 70.949 14.104 18.947 6.291 35.761 14.074 50.673 22.508 27.059 15.304 48.686 33.111 66.841 50.463 16.565 15.842 30.457 31.601 43.185 45.885 11.384 12.786 22.243 24.738 32.478 32.707-13.715-2.877-30.081-18.638-47.67-36.215-13.15-13.133-27.76-27.574-45.405-41.499-19.412-15.317-42.871-30.346-71.866-41.08-16.065-5.941-34.111-10.627-54.093-13.019-21.912-2.61-46.576-2.488-73.388 1.933-18.543 3.065-38.3 8.241-58.816 15.987v-47.086c14.175-2.498 27.782-4.108 40.764-4.928 16.389-1.053 31.859-0.859 46.348 0.24" fill="#0a50a1"/>
  </g>
 </g>
 <path d="m596.39 69.324c-22.75 4.1826-42.519 13.609-59.735 23.796-15.97 9.4555-29.699 19.618-42.704 27.809-0.81404 0.51446-1.6247 1.0156-2.4343 1.5122 7.3686-0.44321 15.228-2.5713 23.331-5.3564 13.155-4.5256 27.302-10.619 43.427-14.904 17.442-4.627 37.499-7.0646 58.604-2.8619 11.364 2.2728 23.238 6.6749 34.922 13.314v-41.395c-19.589-4.9421-38.665-4.9867-55.41-1.9132" fill="#00a0c6"/>
 <g transform="matrix(1.1136 0 0 -1.1136 -16.42 521.07)">
  <g clip-path="url(#clipPath2469-1)">
   <path d="m550.3 405.67c-20.429-3.756-38.182-12.221-53.642-21.369-14.341-8.491-26.67-17.617-38.348-24.972-0.731-0.462-1.459-0.912-2.186-1.358 6.617 0.398 13.675 2.309 20.951 4.81 11.813 4.064 24.517 9.536 38.997 13.384 15.663 4.155 33.674 6.344 52.626 2.57 10.205-2.041 20.868-5.994 31.36-11.956v37.173c-17.591 4.438-34.721 4.478-49.758 1.718" fill="#0a50a1"/>
  </g>
 </g>
 <g transform="matrix(1.1136 0 0 -1.1136 -16.42 521.07)">
  <g clip-path="url(#clipPath2483-8)">
   <path d="m600.81 433.06c-26.656 1.093-50.712-6.014-70.572-15.809-20.04-9.888-36.789-22.664-51.564-35.3-13.691-11.714-25.494-23.286-36.889-32.773-9.978-8.302-19.593-14.94-28.885-15.967-8.446-0.922-17.306 4.417-24.059 12.99-16.836 21.414-23.794 52.806-41.739 63.406-13.481 7.918-34.226-9.986-56.729-30.521-13.445-12.274-28.618-25.607-47.052-37.781-20.311-13.408-45.084-25.709-75.044-32.078-16.668-3.538-35.227-5.27-55.325-4.132-22.079 1.265-46.387 6.036-71.817 15.649-13.407 5.069-27.175 11.502-41.039 19.414v-46.055c21.286-7.485 41.691-12.282 60.751-14.912 26.885-3.731 51.515-3.235 73.343-0.124 19.914 2.842 37.855 7.895 53.816 14.129 28.822 11.269 52.091 26.636 71.375 42.187 17.534 14.146 32.073 28.729 45.177 41.987 22.1 22.371 42.254 41.862 57.891 36.389 18.046-6.361 27.658-33.678 44.303-52.019 7.026-7.731 15.636-12.79 24.247-12.708 9.183 0.096 19.047 4.913 29.397 11.137 11.707 7.041 24.096 15.803 38.494 23.828 15.518 8.644 33.364 16.475 53.737 19.395 14.676 2.096 31.268 1.375 48.183-3.538z" fill="#0a50a1"/>
  </g>
 </g>
 <g transform="matrix(1.1136 0 0 -1.1136 -16.42 521.07)">
  <g clip-path="url(#clipPath2497-4)">
   <path d="m599.98 376.54c-1.976 1.15-3.956 2.236-5.936 3.256-26.203 13.496-53.147 15.554-75.472 11.456-20.427-3.755-38.182-12.22-53.641-21.368-14.341-8.492-26.67-17.617-38.349-24.972-10.311-6.498-20.144-11.56-29.34-11.819-8.584-0.228-17.225 4.777-24.224 12.527-16.669 18.487-26.01 46.136-44.045 52.91-15.416 5.749-35.636-13.532-57.788-35.67-13.151-13.134-27.761-27.574-45.407-41.499-19.411-15.317-42.87-30.345-71.866-41.08-16.065-5.941-34.111-10.627-54.094-13.019-21.91-2.612-46.575-2.489-73.387 1.931-8.67 1.434-17.606 3.328-26.76 5.731v-41.096c2.933-0.26 5.836-0.478 8.708-0.66 16.389-1.053 31.859-0.859 46.347 0.24 26.612 2.035 50.259 7.242 70.95 14.104 18.948 6.291 35.761 14.072 50.674 22.508 27.058 15.304 48.686 33.111 66.841 50.463 16.565 15.842 30.458 31.6 43.184 45.885 21.683 24.351 41.456 45.7 58.656 42.207 18.287-3.764 29.831-29.63 46.269-48.445 7.23-8.267 15.54-14.423 24.398-16.1 8.968-1.69 19.078 0.698 29.65 4.334 11.811 4.064 24.516 9.536 38.997 13.383 15.665 4.156 33.673 6.345 52.626 2.571 20.887-4.179 43.695-16.339 63.009-37.415z" fill="#00a0c6"/>
  </g>
 </g>
 <g transform="matrix(1.1136 0 0 -1.1136 -16.42 521.07)">
  <g clip-path="url(#clipPath2511-2)">
   <path d="m599.98 424.4c-25.745 0.608-48.996-6.371-68.284-15.885-20.043-9.888-36.79-22.663-51.564-35.299-13.693-11.714-25.494-23.287-36.889-32.773-9.98-8.303-19.593-14.941-28.885-15.968-8.448-0.922-17.307 4.418-24.059 12.991-16.836 21.413-23.796 52.806-41.741 63.405-13.48 7.918-34.225-9.986-56.729-30.521-13.443-12.274-28.617-25.607-47.051-37.781-20.311-13.406-45.084-25.708-75.045-32.076-16.668-3.54-35.226-5.27-55.324-4.134-22.079 1.266-46.387 6.037-71.817 15.649-14.013 5.3-28.421 12.087-42.921 20.497v-46.468c21.965-7.869 43.012-12.873 62.633-15.582 26.885-3.73 51.515-3.234 73.342-0.123 19.915 2.842 37.856 7.895 53.817 14.129 28.821 11.269 52.092 26.635 71.375 42.187 17.533 14.145 32.072 28.727 45.177 41.988 22.101 22.369 42.255 41.86 57.892 36.388 18.046-6.362 27.657-33.679 44.302-52.019 7.025-7.731 15.637-12.791 24.248-12.709 9.182 0.097 19.045 4.913 29.395 11.138 11.708 7.041 24.098 15.803 38.496 23.828 15.516 8.643 33.364 16.475 53.737 19.395 14.012 2.002 29.773 1.434 45.895-2.899z" fill="#0f298f"/>
  </g>
 </g>
 <g fill="none">
  <g stroke="#fff" stroke-width=".1225">
   <path d="m-17.155 162.23v116.66"/>
   <path d="m-7.2963 158.14c-1.7038 39.653-3.3842 79.308-5.0891 118.96"/>
   <path d="m2.4722 154.35c-3.3686 40.27-6.7639 80.53-10.136 120.8"/>
   <path d="m12.136 150.87c-5.0334 40.726-10.081 81.444-15.115 122.17"/>
   <path d="m21.687 147.71c-6.6749 41.017-13.336 82.037-20.012 123.06"/>
   <path d="m31.111 144.87c-8.2662 41.148-16.531 82.305-24.807 123.46"/>
   <path d="m40.404 142.36c-9.8341 41.107-19.653 82.244-29.486 123.38"/>
   <path d="m49.551 140.18c-11.346 40.904-22.68 81.854-34.03 122.82"/>
   <path d="m58.551 138.32c-12.826 40.526-25.625 81.132-38.43 121.78"/>
   <path d="m67.389 136.78c-14.243 39.986-28.446 80.097-42.664 120.26"/>
   <path d="m76.063 135.56c-15.599 39.287-31.16 78.736-46.724 118.28"/>
   <path d="m84.563 134.64c-16.904 38.42-33.747 77.068-50.597 115.84"/>
   <path d="m92.886 134.03c-18.137 37.4-36.201 75.097-54.271 112.95"/>
   <path d="m101.03 133.71c-19.301 36.227-38.516 72.832-57.737 109.64"/>
   <path d="m108.98 133.67c-20.394 34.909-40.692 70.282-60.985 105.92"/>
   <path d="m116.74 133.89c-21.419 33.446-42.716 67.465-64.009 101.8"/>
   <path d="m124.31 134.37c-22.363 31.853-44.58 64.402-66.802 97.312"/>
   <path d="m131.69 135.09c-23.227 30.139-46.298 61.084-69.358 92.471"/>
   <path d="m138.86 136.04c-24.011 28.309-47.844 57.555-71.67 87.302"/>
   <path d="m145.84 137.19c-24.712 26.369-49.233 53.811-73.734 81.829"/>
   <path d="m152.62 138.53c-25.323 24.348-50.453 49.88-75.552 76.077"/>
   <path d="m159.21 140.04c-25.849 22.233-51.502 45.786-77.118 70.074"/>
   <path d="m165.59 141.71c-26.293 20.031-52.38 41.542-78.43 63.842"/>
   <path d="m171.78 143.52c-26.643 17.788-53.095 37.153-79.495 57.412"/>
   <path d="m177.77 145.45c-26.904 15.487-53.634 32.664-80.303 50.811"/>
   <path d="m183.58 147.48c-27.081 13.15-54.004 28.09-80.867 44.065"/>
   <path d="m189.2 149.6c-27.173 10.776-54.208 23.441-81.182 37.202"/>
   <path d="m194.63 151.79c-27.177 8.3864-54.25 18.726-81.252 30.245"/>
   <path d="m199.87 154.03c-27.097 6.0034-54.125 13.993-81.083 23.228"/>
   <path d="m204.95 156.3c-26.939 3.6014-53.84 9.2462-80.681 16.173"/>
   <path d="m209.84 158.6c-26.699 1.2405-53.402 4.5-80.047 9.1069"/>
   <path d="m214.58 160.9c-26.388-1.1192-52.812-0.21158-79.191 2.0568"/>
   <path d="m219.14 163.18c-26-3.4443-52.075-4.8976-78.115-4.9566"/>
   <path d="m223.55 165.45c-25.547-5.7194-51.195-9.5167-76.83-11.909"/>
   <path d="m227.81 167.68c-25.027-7.96-50.183-14.057-75.341-18.768"/>
   <path d="m231.92 169.86c-24.449-10.14-49.043-18.52-73.66-25.526"/>
   <path d="m235.89 171.98c-23.804-12.283-47.778-22.876-71.789-32.15"/>
   <path d="m239.73 174.03c-23.11-14.35-46.393-27.142-69.739-38.625"/>
   <path d="m243.44 176c-22.366-16.346-44.903-31.27-67.52-44.932"/>
   <path d="m247.03 177.87c-21.565-18.299-43.312-35.246-65.142-51.051"/>
   <path d="m250.5 179.65c-20.723-20.158-41.625-39.088-62.609-56.966"/>
   <path d="m253.86 181.31c-19.841-21.934-39.836-42.8-59.936-62.663"/>
   <path d="m257.13 182.87c-18.92-23.648-37.97-46.349-57.134-68.124"/>
   <path d="m260.29 184.31c-17.946-25.292-36.031-49.712-54.204-73.34"/>
   <path d="m263.37 185.62c-16.942-26.845-34.011-52.922-51.163-78.295"/>
   <path d="m266.37 186.8c-15.911-28.305-31.93-55.949-48.019-82.979"/>
   <path d="m269.29 187.85c-14.85-29.677-29.776-58.806-44.782-87.385"/>
   <path d="m272.13 188.76c-13.751-30.971-27.578-61.46-41.462-91.499"/>
   <path d="m274.92 189.53c-12.636-32.163-25.33-63.93-38.068-95.319"/>
   <path d="m277.65 190.16c-11.494-33.263-23.027-66.21-34.609-98.836"/>
   <path d="m280.33 190.65c-10.333-34.27-20.698-68.284-31.096-102.05"/>
   <path d="m282.96 191c-9.1582-35.177-18.335-70.158-27.536-104.94"/>
   <path d="m285.55 191.2c-7.9711-35.988-15.942-71.833-23.941-107.53"/>
   <path d="m288.11 191.26c-6.7651-36.702-13.541-73.3-20.316-109.79"/>
   <path d="m290.64 191.18c-5.5524-37.319-11.111-74.567-16.677-111.74"/>
   <path d="m293.15 190.96c-4.3385-37.834-8.6782-75.627-13.027-113.38"/>
   <path d="m295.63 190.61c-3.1248-38.256-6.2484-76.488-9.3731-114.7"/>
   <path d="m298.11 190.11c-1.9087-38.575-3.8185-77.143-5.7261-115.7"/>
   <path d="m300.58 189.49c-0.69821-38.799-1.3987-77.598-2.0947-116.4"/>
   <path d="m303.03 188.73c0.50446-38.928 1.0145-77.858 1.5189-116.79"/>
   <path d="m305.49 187.86c1.7016-38.965 3.4042-77.924 5.1025-116.87"/>
   <path d="m307.96 186.86c2.8842-38.909 5.7651-77.798 8.6526-116.67"/>
   <path d="m310.43 185.74c4.0501-38.762 8.1069-77.484 12.157-116.17"/>
   <path d="m312.91 184.5c5.1982-38.527 10.406-76.988 15.615-115.39"/>
   <path d="m315.4 183.17c6.3296-38.207 12.674-76.318 19.018-114.33"/>
   <path d="m317.91 181.72c7.4444-37.804 14.895-75.477 22.364-113.01"/>
   <path d="m320.45 180.18c8.5312-37.322 17.079-74.467 25.644-111.43"/>
   <path d="m323 178.55c9.5925-36.763 19.213-73.298 28.854-109.6"/>
   <path d="m325.58 176.83c10.631-36.13 21.297-71.974 31.991-107.53"/>
   <path d="m328.18 175.03c11.639-35.426 23.325-70.503 35.049-105.23"/>
   <path d="m330.82 173.15c12.623-34.652 25.294-68.892 38.024-102.71"/>
   <path d="m333.49 171.2c13.566-33.821 27.207-67.15 40.91-99.986"/>
   <path d="m336.19 169.19c14.493-32.918 29.057-65.28 43.712-97.057"/>
   <path d="m338.92 167.12c15.384-31.961 30.852-63.288 46.419-93.946"/>
   <path d="m341.68 164.99c16.241-30.956 32.585-61.18 49.034-90.656"/>
   <path d="m344.48 162.82c17.067-29.891 34.252-58.962 51.549-87.201"/>
   <path d="m347.33 160.61c17.853-28.787 35.849-56.651 53.966-83.593"/>
   <path d="m350.2 158.37c18.619-27.627 37.383-54.249 56.283-79.842"/>
   <path d="m353.12 156.09c19.343-26.432 38.847-51.761 58.495-75.96"/>
   <path d="m356.06 153.8c20.044-25.192 40.248-49.191 60.606-71.961"/>
   <path d="m359.06 151.48c20.697-23.927 41.581-46.541 62.606-67.852"/>
   <path d="m362.08 149.15c21.324-22.623 42.844-43.84 64.509-63.645"/>
   <path d="m365.15 146.82c21.923-21.278 44.036-41.079 66.303-59.351"/>
   <path d="m368.25 144.48c22.48-19.928 45.168-38.251 67.992-54.982"/>
   <path d="m371.39 142.15c23.01-18.529 46.228-35.372 69.574-50.549"/>
   <path d="m374.56 139.83c23.507-17.125 47.222-32.468 71.054-46.06"/>
   <path d="m377.77 137.53c23.969-15.694 48.146-29.519 72.423-41.528"/>
   <path d="m381.02 135.24c24.4-14.251 49.007-26.535 73.691-36.959"/>
   <path d="m384.3 132.97c24.794-12.8 49.798-23.522 74.854-32.367"/>
   <path d="m387.61 130.74c25.165-11.325 50.525-20.509 75.918-27.76"/>
   <path d="m390.95 128.53c25.502-9.8341 51.18-17.47 76.879-23.143"/>
   <path d="m394.32 126.36c25.803-8.3542 51.771-14.431 77.736-18.529"/>
   <path d="m397.73 124.23c26.077-6.8586 52.296-11.4 78.498-13.924"/>
   <path d="m401.15 122.15c26.319-5.3597 52.759-8.353 79.163-9.3397"/>
   <path d="m404.61 120.11c26.527-3.8586 53.156-5.314 79.732-4.7773"/>
   <path d="m408.09 118.12c26.707-2.3552 53.49-2.2929 80.206-0.24834"/>
   <path d="m411.59 116.19c26.858-0.86638 53.766 0.69043 80.592 4.2383"/>
   <path d="m415.12 114.31c26.976 0.61358 53.977 3.6771 80.885 8.6827"/>
   <path d="m418.66 112.49c27.066 2.0924 54.134 6.6103 81.093 13.072"/>
   <path d="m422.22 110.73c27.127 3.559 54.232 9.5357 81.216 17.405"/>
   <path d="m425.8 109.03c27.159 5 54.269 12.424 81.258 21.677"/>
   <path d="m429.39 107.4c27.164 6.4098 54.255 15.25 81.219 25.879"/>
   <path d="m433 105.84c27.143 7.8397 54.188 18.045 81.102 30.008"/>
   <path d="m436.61 104.34c27.094 9.2239 54.068 20.795 80.909 34.061"/>
   <path d="m440.24 102.91c27.016 10.608 53.897 23.493 80.642 38.034"/>
   <path d="m443.87 101.55c26.917 11.948 53.677 26.138 80.304 41.921"/>
   <path d="m447.51 100.26c26.791 13.287 53.417 28.725 79.906 45.724"/>
   <path d="m451.16 99.05c26.646 14.571 53.106 31.251 79.435 49.433"/>
   <path d="m454.8 97.907c26.481 15.825 52.754 33.726 78.906 53.051"/>
   <path d="m458.45 96.836c26.28 17.087 52.358 36.137 78.314 56.574"/>
   <path d="m462.09 95.838c26.068 18.293 51.926 38.482 77.666 60"/>
   <path d="m465.73 94.913c25.835 19.467 51.459 40.756 76.962 63.329"/>
   <path d="m469.37 94.06c25.586 20.611 50.956 42.962 76.209 66.557"/>
   <path d="m472.99 93.278c25.316 21.725 50.413 45.12 75.406 69.684"/>
   <path d="m476.61 92.568c25.034 22.795 49.844 47.196 74.555 72.711"/>
   <path d="m480.22 91.929c24.735 23.835 49.246 49.202 73.662 75.636"/>
   <path d="m483.82 91.361c24.418 24.84 48.608 51.151 72.721 78.458"/>
   <path d="m487.41 90.86c24.088 25.815 47.959 53.015 71.745 81.179"/>
   <path d="m490.98 90.428c23.746 26.747 47.281 54.813 70.733 83.798"/>
   <path d="m494.53 90.063c23.39 27.656 46.575 56.55 69.686 86.313"/>
   <path d="m498.07 89.763c23.023 28.524 45.854 58.208 68.607 88.729"/>
   <path d="m501.59 89.527c22.646 29.358 45.108 59.806 67.499 91.045"/>
   <path d="m505.08 89.353c22.267 30.144 44.347 61.337 66.362 93.264"/>
   <path d="m508.56 89.241c21.87 30.912 43.567 62.795 65.204 95.382"/>
   <path d="m512.01 89.19c21.47 31.639 42.769 64.195 64.019 97.402"/>
   <path d="m515.43 89.193c21.055 32.336 41.957 65.527 62.81 99.332"/>
   <path d="m518.83 89.254c20.645 32.995 41.139 66.79 61.589 101.17"/>
   <path d="m522.2 89.369c20.226 33.622 40.309 67.99 60.348 102.91"/>
   <path d="m525.54 89.537c19.799 34.221 39.47 69.131 59.095 104.56"/>
   <path d="m528.86 89.757c19.369 34.784 38.617 70.209 57.825 106.12"/>
   <path d="m532.14 90.023c18.936 35.316 37.761 71.23 56.549 107.59"/>
   <path d="m535.39 90.337c18.502 35.819 36.901 72.19 55.262 108.98"/>
   <path d="m538.6 90.694c18.058 36.295 36.03 73.098 53.966 110.29"/>
   <path d="m541.79 91.095c17.62 36.74 35.159 73.948 52.666 111.52"/>
   <path d="m544.93 91.537c17.183 37.154 34.284 74.744 51.361 112.67"/>
   <path d="m548.05 92.016c16.743 37.539 33.409 75.489 50.055 113.74"/>
   <path d="m551.12 92.533c16.303 37.903 32.535 76.182 48.749 114.75"/>
   <path d="m554.15 93.084c15.861 38.241 31.665 76.824 47.442 115.68"/>
   <path d="m557.15 93.669c15.423 38.551 30.789 77.421 46.136 116.54"/>
   <path d="m560.11 94.282c14.982 38.844 29.919 77.971 44.836 117.33"/>
   <path d="m563.03 94.926c14.548 39.108 29.052 78.478 43.54 118.06"/>
   <path d="m565.91 95.594c14.116 39.351 28.186 78.945 42.25 118.73"/>
   <path d="m568.74 96.288c13.687 39.574 27.33 79.368 40.967 119.34"/>
   <path d="m571.53 97.005c13.255 39.777 26.481 79.751 39.693 119.89"/>
   <path d="m574.29 97.743c12.836 39.955 25.635 80.097 38.428 120.38"/>
   <path d="m576.99 98.501c12.413 40.119 24.799 80.407 37.175 120.83"/>
   <path d="m579.66 99.274c11.994 40.267 23.969 80.682 35.932 121.22"/>
   <path d="m582.28 100.06c11.58 40.395 23.145 80.926 34.699 121.57"/>
   <path d="m584.85 100.87c11.173 40.509 22.333 81.138 33.486 121.87"/>
   <path d="m587.38 101.68c10.774 40.605 21.53 81.321 32.284 122.13"/>
   <path d="m589.86 102.5c10.374 40.691 20.738 81.476 31.096 122.35"/>
   <path d="m592.3 103.34c9.9845 40.756 19.958 81.602 29.924 122.52"/>
   <path d="m594.69 104.18c9.6025 40.811 19.189 81.703 28.772 122.66"/>
   <path d="m597.03 105.02c9.2183 40.855 18.43 81.782 27.633 122.77"/>
   <path d="m599.33 105.87c8.8464 40.887 17.683 81.837 26.516 122.84"/>
   <path d="m601.58 106.72c8.4767 40.908 16.948 81.872 25.414 122.89"/>
   <path d="m603.78 107.57c8.1136 40.918 16.224 81.886 24.331 122.9"/>
   <path d="m605.93 108.42c7.7628 40.917 15.518 81.883 23.271 122.89"/>
   <path d="m608.04 109.27c7.4098 40.911 14.819 81.863 22.228 122.85"/>
   <path d="m610.1 110.12c7.0735 40.894 14.14 81.827 21.208 122.79"/>
   <path d="m612.1 110.96c6.7394 40.873 13.474 81.777 20.209 122.71"/>
   <path d="m614.06 111.79c6.4087 40.841 12.82 81.712 19.228 122.61"/>
   <path d="m615.97 112.62c6.0947 40.805 12.184 81.636 18.273 122.49"/>
   <path d="m617.84 113.44c5.7806 40.764 11.558 81.55 17.34 122.35"/>
   <path d="m619.65 114.25c5.4766 40.718 10.952 81.452 16.425 122.21"/>
   <path d="m621.41 115.05c5.1815 40.666 10.359 81.346 15.54 122.04"/>
   <path d="m623.13 115.83c4.892 40.607 9.7818 81.231 14.674 121.87"/>
   <path d="m624.79 116.61c4.6114 40.55 9.2228 81.112 13.834 121.68"/>
   <path d="m626.4 117.37c4.3408 40.486 8.676 80.983 13.012 121.49"/>
   <path d="m627.97 118.11c4.0735 40.423 8.1459 80.853 12.222 121.29"/>
   <path d="m629.48 118.85c3.8152 40.355 7.6337 80.715 11.45 121.08"/>
   <path d="m630.95 119.56c3.5702 40.285 7.1348 80.575 10.703 120.87"/>
   <path d="m632.37 120.26c3.3274 40.214 6.6548 80.435 9.9811 120.66"/>
   <path d="m633.73 120.94c3.0958 40.142 6.1905 80.287 9.284 120.44"/>
   <path d="m635.05 121.6c2.8697 40.07 5.7428 80.144 8.6103 120.22"/>
   <path d="m636.31 122.24c2.6537 39.999 5.3107 80 7.9644 120"/>
   <path d="m637.53 122.86c2.4477 39.926 4.8931 79.856 7.343 119.79"/>
   <path d="m638.7 123.46c2.2472 39.855 4.4956 79.711 6.7428 119.57"/>
   <path d="m639.82 124.04c2.0557 39.785 4.1147 79.569 6.1715 119.36"/>
   <path d="m640.88 124.6c1.8753 39.713 3.7495 79.431 5.6248 119.15"/>
   <path d="m641.9 125.14c1.7016 39.644 3.402 79.293 5.1036 118.94"/>
   <path d="m642.87 125.65c1.5368 39.579 3.0691 79.157 4.6047 118.74"/>
   <path d="m643.78 126.14c1.3786 39.514 2.7561 79.029 4.1336 118.55"/>
   <path d="m644.65 126.6c1.2283 39.451 2.4588 78.903 3.6871 118.36"/>
   <path d="m645.47 127.04c1.0891 39.393 2.1771 78.784 3.2673 118.18"/>
   <path d="m646.24 127.46c0.95546 39.335 1.9154 78.668 2.8708 118"/>
   <path d="m646.96 127.85c0.83519 39.279 1.6659 78.559 2.5 117.84"/>
   <path d="m647.63 128.21c0.71715 39.228 1.4365 78.456 2.1537 117.68"/>
   <path d="m648.25 128.55c0.61135 39.181 1.2227 78.358 1.8374 117.54"/>
   <path d="m648.82 128.87c0.51559 39.134 1.0301 78.268 1.5434 117.4"/>
   <path d="m649.34 129.15c0.4254 39.093 0.84968 78.185 1.2762 117.28"/>
   <path d="m649.81 129.41c0.34632 39.055 0.68819 78.108 1.0356 117.16"/>
   <path d="m650.23 129.65c0.27395 39.019 0.54344 78.039 0.81738 117.06"/>
   <path d="m650.6 129.85c0.21047 38.99 0.41871 77.979 0.62584 116.97"/>
   <path d="m650.92 130.03c0.15479 38.962 0.30734 77.925 0.46102 116.88"/>
   <path d="m651.2 130.19c0.10574 38.939 0.21047 77.877 0.31961 116.82"/>
   <path d="m651.42 130.31c0.068 38.92 0.13698 77.839 0.20491 116.76"/>
   <path d="m651.59 130.41c0.0379 38.907 0.0757 77.81 0.11586 116.72"/>
   <path d="m651.71 130.48c0.0189 38.892 0.0346 77.79 0.0524 116.68"/>
   <path d="m651.79 130.52c7e-3 38.889 9e-3 77.776 0.0145 116.67"/>
  </g>
  <g stroke="#0071bc" stroke-width=".20936">
   <path d="m648.67 114.84s1.0902 0.51448 3.0624 1.4432"/>
   <path d="m644.8 118.33s2.5579 1.0757 6.9299 2.9165"/>
   <path d="m641.08 121.82s4.0368 1.5022 10.651 3.9677"/>
   <path d="m637.5 125.32s5.5123 1.7951 14.233 4.6326"/>
   <path d="m634.07 128.81s6.9733 1.9521 17.668 4.9421"/>
   <path d="m630.77 132.29s8.4232 1.98 20.966 4.9265"/>
   <path d="m627.62 135.76s9.8408 1.8797 24.116 4.6069"/>
   <path d="m624.61 139.2s11.233 1.6626 27.126 4.0123"/>
   <path d="m621.74 142.61s12.591 1.3263 29.998 3.1592"/>
   <path d="m619 145.99s13.918 0.8775 32.731 2.0635"/>
   <path d="m616.41 149.33s15.206 0.31849 35.323 0.74165"/>
   <path d="m613.95 152.63s16.457-0.343 37.781-0.79177"/>
   <path d="m611.63 155.87s17.674-1.1136 40.107-2.5267"/>
   <path d="m609.44 159.06s18.846-1.9844 42.299-4.4521"/>
   <path d="m607.37 162.18s19.984-2.9555 44.362-6.5602"/>
   <path d="m605.43 165.24s21.087-4.029 46.3-8.8441"/>
   <path d="m603.62 168.22s22.153-5.2027 48.114-11.303"/>
   <path d="m601.93 171.13s23.184-6.4822 49.809-13.927"/>
   <path d="m600.35 173.95s24.187-7.8709 51.388-16.724"/>
   <path d="m598.88 176.69s25.162-9.3709 52.852-19.686"/>
   <path d="m597.53 179.33s26.109-10.993 54.207-22.823"/>
   <path d="m596.28 181.88s27.039-12.743 55.457-26.137"/>
   <path d="m595.13 184.32s27.95-14.635 56.603-29.638"/>
   <path d="m594.08 186.66s28.856-16.687 57.654-33.34"/>
   <path d="m593.12 188.89s29.764-18.918 58.614-37.257"/>
   <path d="m592.25 191.01s30.679-21.356 59.485-41.409"/>
   <path d="m591.46 193s31.618-24.035 60.273-45.82"/>
   <path d="m590.75 194.89s32.594-27.007 60.981-50.529"/>
   <path d="m590.12 196.64s33.628-30.331 61.617-55.572"/>
   <path d="m589.55 198.27s34.756-34.089 62.186-60.996"/>
   <path d="m589.04 199.77s36.012-38.41 62.693-66.868"/>
   <path d="m588.59 201.14s37.46-43.465 63.142-73.269"/>
   <path d="m588.19 202.38s39.201-49.534 63.54-80.295"/>
   <path d="m587.84 203.48s41.409-57.085 63.891-88.081"/>
   <path d="m587.53 204.44s44.462-67.03 64.203-96.789"/>
   <path d="m587.25 205.26s49.453-81.787 64.481-106.64"/>
   <path d="m587 205.95 63.947-116.51"/>
   <path d="m586.78 206.49 59.018-119.09"/>
   <path d="m586.57 206.89 53.991-121.46"/>
   <path d="m586.37 207.14 48.865-123.62"/>
   <path d="m586.17 207.25 43.654-125.56"/>
   <path d="m585.98 207.22 38.364-127.28"/>
   <path d="m585.78 207.05 33.01-128.78"/>
   <path d="m585.56 206.73 27.599-130.05"/>
   <path d="m585.32 206.27 22.135-131.09"/>
   <path d="m585.06 205.67 16.637-131.9"/>
   <path d="m584.77 204.93 11.108-132.49"/>
   <path d="m584.44 204.05 5.5579-132.84"/>
   <path d="m584.07 203.04v-132.95"/>
   <path d="m583.65 201.89-5.5579-132.83"/>
   <path d="m583.17 200.6-11.106-132.49"/>
   <path d="m582.64 199.19-16.636-131.91"/>
   <path d="m582.04 197.65-22.136-131.09"/>
   <path d="m581.37 195.98-27.597-130.05"/>
   <path d="m580.63 194.19-33.011-128.78"/>
   <path d="m579.81 192.29-38.364-127.28"/>
   <path d="m578.9 190.26-43.652-125.56"/>
   <path d="m577.9 188.13-48.865-123.62"/>
   <path d="m576.81 185.89-53.989-121.46"/>
   <path d="m575.61 183.54-59.02-119.09"/>
   <path d="m574.32 181.1-63.945-116.51"/>
   <path d="m572.92 178.56-68.761-113.72"/>
   <path d="m571.4 175.93-73.457-110.74"/>
   <path d="m569.77 173.21-78.021-107.56"/>
   <path d="m568.03 170.42-82.451-104.19"/>
   <path d="m566.15 167.55-86.731-100.64"/>
   <path d="m564.16 164.6-90.863-96.919"/>
   <path d="m562.04 161.6-94.838-93.023"/>
   <path d="m559.79 158.53-98.644-88.964"/>
   <path d="m557.41 155.4-102.28-84.746"/>
   <path d="m554.89 152.24-105.73-80.383"/>
   <path d="m552.23 149.02-108.99-75.878"/>
   <path d="m549.44 145.77-112.08-71.241"/>
   <path d="m546.51 142.49-114.95-66.476"/>
   <path d="m543.44 139.18-117.63-61.596"/>
   <path d="m540.22 135.85-120.1-56.609"/>
   <path d="m536.86 132.51-122.37-51.52"/>
   <path d="m533.36 129.16-124.41-46.343"/>
   <path d="m529.72 125.81-126.24-41.085"/>
   <path d="m525.93 122.47-127.84-35.755"/>
   <path d="m522 119.13-129.23-30.36"/>
   <path d="m517.93 115.81-130.39-24.911"/>
   <path d="m513.72 112.51-131.31-19.421"/>
   <path d="m509.36 109.24-132.01-13.898"/>
   <path d="m504.87 106.01-132.47-8.3464"/>
   <path d="m500.24 102.81-132.71-2.784"/>
   <path d="m495.48 99.664-132.71 2.7851"/>
   <path d="m490.57 96.565-132.47 8.3486"/>
   <path d="m485.54 93.523-132.01 13.899"/>
   <path d="m480.38 90.545-131.31 19.423"/>
   <path d="m475.1 87.632-130.39 24.914"/>
   <path d="m469.69 84.793-129.23 30.361"/>
   <path d="m464.16 82.033-127.85 35.754"/>
   <path d="m458.51 79.355-126.24 41.085"/>
   <path d="m452.75 76.763-124.41 46.345"/>
   <path d="m446.88 74.267-122.36 51.521"/>
   <path d="m440.91 71.866-120.11 56.608"/>
   <path d="m434.83 69.566-117.63 61.597"/>
   <path d="m428.66 67.371-114.95 66.477"/>
   <path d="m422.39 65.287-112.07 71.24"/>
   <path d="m416.04 63.314-109 75.879"/>
   <path d="m409.6 61.459-105.73 80.385"/>
   <path d="m403.09 59.724-102.27 84.75"/>
   <path d="m396.5 58.114-98.643 88.964"/>
   <path d="m389.85 56.627-94.834 93.024"/>
   <path d="m383.13 55.273-90.863 96.918"/>
   <path d="m376.35 54.048-86.732 100.65"/>
   <path d="m369.53 52.957-82.448 104.2"/>
   <path d="m362.66 52.001-78.019 107.56"/>
   <path d="m355.74 51.184-73.455 110.74"/>
   <path d="m348.8 50.507-68.761 113.72"/>
   <path d="m341.82 49.968-63.945 116.51"/>
   <path d="m334.83 49.573-59.02 119.09"/>
   <path d="m327.81 49.318-53.989 121.46"/>
   <path d="m320.79 49.209-48.862 123.62"/>
   <path d="m313.76 49.24-43.652 125.56"/>
   <path d="m306.73 49.417-38.365 127.28"/>
   <path d="m299.71 49.736-33.01 128.78"/>
   <path d="m292.7 50.197-27.597 130.05"/>
   <path d="m285.71 50.801-22.135 131.09"/>
   <path d="m278.75 51.547-16.635 131.9"/>
   <path d="m271.82 52.432-11.107 132.49"/>
   <path d="m264.92 53.456-5.5579 132.84"/>
   <path d="m258.07 54.616 1e-3 132.95"/>
   <path d="m251.27 55.911 5.559 132.84"/>
   <path d="m244.52 57.34 11.107 132.49"/>
   <path d="m237.83 58.898 16.636 131.9"/>
   <path d="m231.2 60.585 22.136 131.09"/>
   <path d="m224.64 62.396 27.598 130.05"/>
   <path d="m218.16 64.33 33.011 128.78"/>
   <path d="m211.76 66.382 38.365 127.28"/>
   <path d="m205.45 68.551 43.654 125.56"/>
   <path d="m199.22 70.829 48.864 123.62"/>
   <path d="m193.09 73.215 53.989 121.46"/>
   <path d="m187.06 75.704 59.02 119.09"/>
   <path d="m181.13 78.296 63.947 116.51"/>
   <path d="m175.31 80.979 68.761 113.72"/>
   <path d="m169.6 83.754 73.456 110.74"/>
   <path d="m164.01 86.615 78.02 107.56"/>
   <path d="m158.53 89.555 82.449 104.19"/>
   <path d="m153.18 92.572 86.733 100.65"/>
   <path d="m147.95 95.66 90.865 96.918"/>
   <path d="m142.84 98.813 94.837 93.023"/>
   <path d="m137.87 102.03 98.642 88.961"/>
   <path d="m133.03 105.29 102.28 84.748"/>
   <path d="m128.32 108.61 105.73 80.383"/>
   <path d="m123.75 111.97 109 75.878"/>
   <path d="m119.32 115.36 112.07 71.24"/>
   <path d="m115.03 118.79 114.95 66.476"/>
   <path d="m110.88 122.24 117.63 61.597"/>
   <path d="m106.87 125.71 120.1 56.609"/>
   <path d="m103.01 129.2 122.36 51.52"/>
   <path d="m99.282 132.69 124.41 46.344"/>
   <path d="m95.703 136.19 126.24 41.085"/>
   <path d="m92.265 139.68 127.85 35.755"/>
   <path d="m88.97 143.16 129.23 30.36"/>
   <path d="m85.819 146.63 130.39 24.913"/>
   <path d="m82.808 150.07 131.31 19.424"/>
   <path d="m79.938 153.48 132.01 13.895"/>
   <path d="m77.206 156.86 132.47 8.3486"/>
   <path d="m74.613 160.2 132.71 2.7851"/>
   <path d="m72.154 163.5 132.71-2.7851"/>
   <path d="m69.83 166.74 132.48-8.3486"/>
   <path d="m67.636 169.93 132.01-13.895"/>
   <path d="m65.573 173.05 131.31-19.422"/>
   <path d="m63.635 176.11 130.39-24.911"/>
   <path d="m61.821 179.09 129.23-30.359"/>
   <path d="m60.126 182 127.85-35.752"/>
   <path d="m58.549 184.82 126.24-41.083"/>
   <path d="m57.085 187.56 124.41-46.342"/>
   <path d="m55.73 190.2 122.36-51.519"/>
   <path d="m54.479 192.74 120.11-56.607"/>
   <path d="m53.332 195.19 117.63-61.595"/>
   <path d="m52.28 197.53 114.95-66.477"/>
   <path d="m51.323 199.76 112.07-71.239"/>
   <path d="m50.451 201.88 109-75.876"/>
   <path d="m49.664 203.88 105.73-80.382"/>
   <path d="m48.955 205.76 102.28-84.746"/>
   <path d="m48.318 207.51 98.644-88.963"/>
   <path d="m47.75 209.14 94.837-93.022"/>
   <path d="m47.242 210.64 90.866-96.917"/>
   <path d="m46.794 212.01 86.732-100.65"/>
   <path d="m46.396 213.25 82.45-104.2"/>
   <path d="m46.044 214.35 78.021-107.56"/>
   <path d="m45.732 215.31 73.456-110.74"/>
   <path d="m45.455 216.13 68.762-113.72"/>
   <path d="m45.205 216.82 63.947-116.5"/>
   <path d="m44.978 217.36 59.02-119.09"/>
   <path d="m44.769 217.76 53.99-121.46"/>
   <path d="m44.569 218.01 48.864-123.62"/>
   <path d="m44.374 218.12 43.653-125.56"/>
   <path d="m44.178 218.09 38.365-127.28"/>
   <path d="m43.976 217.92 33.01-128.78"/>
   <path d="m43.759 217.6 27.598-130.05"/>
   <path d="m43.524 217.14 22.137-131.09"/>
   <path d="m43.262 216.54 16.637-131.9"/>
   <path d="m42.97 215.8 11.108-132.49"/>
   <path d="m42.642 214.93 5.5579-132.84"/>
   <path d="m42.27 213.91v-132.95"/>
   <path d="m41.849 212.76-5.5579-132.83"/>
   <path d="m41.375 211.48-11.107-132.49"/>
   <path d="m40.842 210.06-16.637-131.9"/>
   <path d="m40.244 208.52-22.136-131.09"/>
   <path d="m39.576 206.85-27.598-130.05"/>
   <path d="m38.832 205.06-33.01-128.78"/>
   <path d="m38.008 203.16-38.365-127.28"/>
   <path d="m37.1 201.13-43.654-125.56"/>
   <path d="m36.1 199-48.864-123.62"/>
   <path d="m35.007 196.76s-42.154-94.834-51.966-116.91"/>
   <path d="m33.814 194.41s-34.539-69.688-50.773-102.45"/>
   <path d="m32.518 191.97s-30.613-55.779-49.477-90.146"/>
   <path d="m31.116 189.43s-27.825-46.018-48.075-79.508"/>
   <path d="m29.6 186.8s-25.587-38.576-46.559-70.193"/>
   <path d="m27.972 184.08s-23.667-32.628-44.931-61.942"/>
   <path d="m26.224 181.29s-21.939-27.724-43.183-54.572"/>
   <path d="m24.356 178.42s-20.338-23.598-41.315-47.94"/>
   <path d="m22.362 175.48s-18.814-20.07-39.321-41.941"/>
   <path d="m20.242 172.47s-17.345-17.013-37.201-36.489"/>
   <path d="m17.99 169.4s-15.909-14.346-34.949-31.519"/>
   <path d="m15.607 166.28s-14.491-12.009-32.566-26.985"/>
   <path d="m13.089 163.11s-13.085-9.9466-30.048-22.843"/>
   <path d="m10.434 159.89s-11.68-8.1303-27.393-19.07"/>
   <path d="m7.6414 156.64s-10.274-6.5312-24.6-15.637"/>
   <path d="m4.7082 153.36s-8.862-5.1236-21.667-12.529"/>
   <path d="m1.6347 150.05s-7.4477-3.8998-18.594-9.7372"/>
   <path d="m-1.5802 146.72s-6.0256-2.8396-15.379-7.2472"/>
   <path d="m-4.9366 143.38s-4.6025-1.9365-12.022-5.0602"/>
   <path d="m-8.4388 140.03s-3.1782-1.1838-8.5201-3.1748"/>
   <path d="m-12.082 136.68s-1.7639-0.57462-4.8764-1.5869"/>
   <path d="m-15.869 133.34s-0.37751-0.1035-1.0902-0.30401"/>
  </g>
 </g>
 <g transform="matrix(1.1136 0 0 -1.1136 -16.42 521.07)">
  <g clip-path="url(#clipPath3385-5)">
   <path d="m600 450.32c-25.743 0.608-48.993-6.37-68.284-15.883-20.04-9.888-36.789-22.664-51.563-35.3-13.692-11.714-25.494-23.286-36.89-32.772-9.979-8.304-19.591-14.942-28.883-15.968-8.448-0.923-17.308 4.417-24.06 12.99-16.838 21.413-23.796 52.806-41.741 63.406-13.481 7.918-34.225-9.986-56.728-30.521-13.445-12.274-28.618-25.606-47.052-37.781-20.311-13.407-45.084-25.709-75.045-32.077-16.668-3.539-35.226-5.272-55.324-4.133-22.079 1.266-46.387 6.037-71.817 15.648-14.013 5.3-28.421 12.088-42.921 20.497v-46.468c21.966-7.869 43.012-12.874 62.633-15.582 26.886-3.73 51.515-3.232 73.343-0.123 19.915 2.843 37.855 7.895 53.816 14.129 28.822 11.27 52.092 26.635 71.376 42.187 17.533 14.145 32.071 28.729 45.174 41.987 22.102 22.371 42.258 41.862 57.893 36.389 18.046-6.361 27.658-33.679 44.302-52.019 7.027-7.73 15.638-12.789 24.25-12.708 9.179 0.097 19.044 4.913 29.395 11.137 11.708 7.042 24.096 15.803 38.493 23.828 15.519 8.645 33.366 16.476 53.737 19.395 14.015 2.002 29.776 1.434 45.896-2.899z" fill="#13007c"/>
  </g>
 </g>
</svg>
