<?xml version="1.0" encoding="utf-8"?>

<svg version="1.1" id="Layer_1" xmlns="http://www.w3.org/2000/svg" xmlns:xlink="http://www.w3.org/1999/xlink" x="0px" y="0px" viewBox="0 0 2500 2500" style="enable-background:new 0 0 2500 2500;" xml:space="preserve">

	<defs>
		<style type="text/css">
			.svg-image { display: none; }
			.svg-image:target { display: inline; }
			rect, line { shape-rendering: crispEdges; }
			/* CSS3 Logo */
			.css3-st0{fill:#264DE4;}
			.css3-st1{fill:#2965F1;}
			.css3-st2{fill:#EBEBEB;}
			.css3-st3{fill:#FFFFFF;}
			/* Github Logo */
			.github-st0{fill:none;}
			.github-st1{fill:#9EDCF2;}
			.github-st2{clip-path:url(#SVGID_2_);fill:#7DBCE7;}
			.github-st3{fill:#010101;}
			.github-st4{fill:#F5CCB3;}
			.github-st5{fill:#FFFFFF;}
			.github-st6{fill:#AF5C51;}
			.github-st7{fill:#C4E5D9;}
			/* HTML5 Logo */
			.html5-st0{fill:#E44D26;}
			.html5-st1{fill:#F16529;}
			.html5-st2{fill:#EBEBEB;}
			.html5-st3{fill:#FFFFFF;}
			/* Sass Logo */
			.sass-st0{fill:none;}
			.sass-st1{fill-rule:evenodd;clip-rule:evenodd;fill:#CC6699;}
			.sass-st2{fill:#FFFFFF;}
			/* Github Monochrome Logo */
			.github-monochrome-st0{fill:#FFFFFF;}
			/* React Logo */
			.reactlogo-st0{fill:#61DAFB;}
			/* Contentful Logo */
			.st0-contentful{fill:#FAE501;}
			.st1-contentful{fill:#4FB5E1;}
			.st2-contentful{fill:#F05751;}
			.st3-contentful{fill:#0681B6;}
			.st4-contentful{fill:#CD4739;}
			/* Netlify Logo */
			.st0-netlify{fill:#25C7B7;}
		</style>
	</defs>

	<g id="svg-logo-css3" class="svg-image">
		<polygon id="polygon2989" class="css3-st0" points="2215.9,160.4 2040.4,2127 1251.3,2345.8 464.3,2127.3 289,160.4 "/>
		<polygon id="polygon2991" class="css3-st1" points="1890.1,2001.8 2040.1,321.3 1252.5,321.3 1252.5,2178.6 "/>
		<polygon id="polygon2993" class="css3-st2" points="691,1050.8 712.6,1292 1252.5,1292 1252.5,1050.8 "/>
		<polygon id="polygon2995" class="css3-st2" points="1252.5,562.5 1251.6,562.5 647.6,562.5 669.5,803.7 1252.5,803.7 "/>
		<polygon id="polygon2997" class="css3-st2" points="1252.5,1928.3 1252.5,1677.3 1251.4,1677.5 982.7,1605 965.6,1412.6 835,1412.6
			723.4,1412.6 757.2,1791.4 1251.4,1928.6 "/>
		<polygon id="polygon3005" class="css3-st3" points="1548.7,1292 1520.7,1604.8 1251.6,1677.5 1251.6,1928.4 1746.2,1791.4 1749.8,1750.6
			1806.5,1115.5 1812.4,1050.8 1855.9,562.5 1251.6,562.5 1251.6,803.7 1591.6,803.7 1569.6,1050.8 1251.6,1050.8 1251.6,1292 "/>
	</g>

	<g id="svg-logo-github" class="svg-image">
		<path class="github-st0" d="M0,0h2500v2500H0V0z"/>
		<path class="github-st1" d="M1953.1,2090.5c0,133.7-309.7,241.4-691.5,241.4s-691.5-108.7-691.5-241.4c0-133.7,309.7-241.4,691.5-241.4
			S1953.1,1956.8,1953.1,2090.5z"/>
		<g>
			<defs>
				<path id="SVGID_1_" d="M964.5,2523.3c15.4,72.1,52.9,114.4,90.4,139.4h395.3c48.1-32.7,97.1-94.2,97.1-209.7v-298.1
					c0,0,5.8-74.1,74.1-98.1c0,0,39.4-27.9-2.9-43.3c0,0-187.5-15.4-187.5,138.5v227c0,0,7.7,83.7-36.5,118.3v-280.8
					c0,0,2.9-89.4,49-123.1c0,0,30.8-54.8-36.5-40.4c0,0-128.9,18.3-134.6,169.3l-2.9,288.5h-30.8l-2.9-288.5
					c-5.8-150-134.6-169.3-134.6-169.3c-67.3-15.4-36.5,40.4-36.5,40.4c46.2,33.7,49,123.1,49,123.1v283.7
					c-44.2-31.7-36.5-121.2-36.5-121.2v-227c0-153.9-187.5-138.5-187.5-138.5c-43.3,15.4-2.9,43.3-2.9,43.3
					c67.3,25,74.1,98.1,74.1,98.1v208.7L964.5,2523.3L964.5,2523.3z"/>
			</defs>
			<clipPath id="SVGID_2_">
				<use xlink:href="#SVGID_1_"  style="overflow:visible;"/>
			</clipPath>
			<path class="github-st2" d="M1953.1,2090.5c0,133.7-309.7,241.4-691.5,241.4s-691.5-108.7-691.5-241.4c0-133.7,309.7-241.4,691.5-241.4
				S1953.1,1956.8,1953.1,2090.5z"/>
		</g>
		<path class="github-st1" d="M472.1,1379.8l-20.2,69.2c0,0-4.8,25,18.3,29.8c25-1,23.1-24,21.2-30.8L472.1,1379.8L472.1,1379.8z"/>
		<path class="github-st3" d="M2481.1,1088.4l1.9-8.7c-202.9-40.4-410.7-41.4-536.6-35.6c20.2-74.1,26.9-160.6,26.9-255.8
			c0-137.5-51.9-247.2-134.6-329.9c14.4-47.1,33.7-152-19.2-285.6c0,0-94.2-29.8-308.7,113.5c-83.7-21.2-173.1-31.7-262.5-31.7
			c-98.1,0-197.2,12.5-290.4,37.5c-221.2-151-318.3-120.2-318.3-120.2c-63.5,158.7-24,277-12.5,305.8
			c-75,80.8-120.2,183.7-120.2,309.7c0,95.2,10.6,180.8,37.5,254.9c-126.9-4.8-327-2.9-523.2,36.5l1.9,8.7
			c196.2-39.4,398.2-40.4,524.1-35.6c5.8,15.4,12.5,30.8,19.2,45.2c-125,3.8-337.6,20.2-541.4,77.9l2.9,8.7
			c205.8-57.7,420.3-73.1,544.3-76.9c75,138.5,221.2,228.9,482.8,256.8c-37.5,25-75,67.3-90.4,139.4c-51,24-210.6,83.7-306.8-81.7
			c0,0-53.9-98.1-156.8-105.8c0,0-100-1.9-6.7,62.5c0,0,66.4,31.7,112.5,150c0,0,60.6,202,350.1,136.6v206.8c0,0-5.8,74.1-74.1,98.1
			c0,0-40.4,27.9,2.9,43.3c0,0,187.5,15.4,187.5-138.5v-227c0,0-7.7-90.4,36.5-121.2v373.1c0,0-2.9,89.4-49,123.1
			c0,0-30.8,54.8,36.5,40.4c0,0,128.9-18.3,134.6-169.3l2.9-378h30.8l2.9,378c5.8,150,134.6,169.3,134.6,169.3
			c67.3,15.4,36.5-40.4,36.5-40.4c-46.2-33.7-49-123.1-49-123.1v-370.3c44.2,34.6,36.5,118.3,36.5,118.3v227
			c0,153.9,187.5,138.5,187.5,138.5c43.3-15.4,2.9-43.3,2.9-43.3c-67.3-25-74.1-98.1-74.1-98.1v-298.1c0-116.4-49-177.9-97.1-209.7
			c278.9-27.9,412.6-117.3,474.1-257.7c122.1,2.9,342.4,18.3,552,77.9l2.9-8.7c-208.7-58.7-427-74.1-551.1-77.9
			c5.8-14.4,10.6-28.9,15.4-44.2C2068.5,1048,2277.2,1048,2481.1,1088.4L2481.1,1088.4z"/>
		<path class="github-st4" d="M1700.2,781.6c59.6,54.8,95.2,120.2,95.2,190.4c0,330.8-246.2,339.5-550.1,339.5S695.2,1265.3,695.2,972
			c0-70.2,34.6-135.6,94.2-189.5c99.1-90.4,266.4-42.3,455.9-42.3S1601.1,691.2,1700.2,781.6L1700.2,781.6z"/>
		<path class="github-st5" d="M1062.6,989.3c0,91.4-51,164.5-114.4,164.5s-114.4-74.1-114.4-164.5c0-91.4,51-164.5,114.4-164.5
			C1011.6,823.9,1062.6,898,1062.6,989.3z"/>
		<path class="github-st6" d="M1026,991.2c0,60.6-34.6,109.6-76,109.6c-42.3,0-76-49-76-109.6s34.6-109.6,76-109.6
			C991.4,881.6,1026,930.7,1026,991.2z"/>
		<path class="github-st5" d="M1677.1,989.3c0,91.4-51,164.5-114.4,164.5c-63.5,0-114.4-74.1-114.4-164.5c0-91.4,51-164.5,114.4-164.5
			C1625.2,823.9,1677.1,898,1677.1,989.3z"/>
		<path class="github-st6" d="M1639.6,991.2c0,60.6-34.6,109.6-76,109.6c-42.3,0-76-49-76-109.6s34.6-109.6,76-109.6
			C1606,881.6,1639.6,930.7,1639.6,991.2z M1276.1,1135.5c0,15.4-12.5,28.9-28.9,28.9c-15.4,0-28.9-12.5-28.9-28.9
			c0-16.3,12.5-28.9,28.9-28.9C1262.6,1106.7,1276.1,1119.2,1276.1,1135.5z M1180.9,1207.6c-1.9-4.8,1-9.6,5.8-11.5
			c4.8-1.9,9.6,1,11.5,5.8c7.7,21.2,26.9,34.6,49,34.6s41.4-14.4,49-34.6c1.9-4.8,6.7-7.7,11.5-5.8s7.7,6.7,5.8,11.5
			c-9.6,27.9-36.5,47.1-66.4,47.1S1190.5,1235.5,1180.9,1207.6L1180.9,1207.6z"/>
		<path class="github-st7" d="M545.2,1338.4c0,7.7-8.7,13.5-20.2,13.5c-10.6,0-20.2-5.8-20.2-13.5s8.7-13.5,20.2-13.5
			C536.5,1325,545.2,1330.7,545.2,1338.4z M601,1369.2c0,7.7-8.7,13.5-20.2,13.5c-10.6,0-20.2-5.8-20.2-13.5c0-7.7,8.7-13.5,20.2-13.5
			S601,1361.5,601,1369.2z M634.6,1409.6c0,7.7-8.7,13.5-20.2,13.5c-10.6,0-20.2-5.8-20.2-13.5c0-7.7,8.7-13.5,20.2-13.5
			C626,1395.2,634.6,1401.9,634.6,1409.6z M665.4,1455.8c0,7.7-8.7,13.5-20.2,13.5c-10.6,0-20.2-5.8-20.2-13.5
			c0-7.7,8.7-13.5,20.2-13.5C656.7,1441.3,665.4,1448.1,665.4,1455.8z M699.1,1498.1c0,7.7-8.7,13.5-20.2,13.5
			c-10.6,0-20.2-5.8-20.2-13.5c0-7.7,8.7-13.5,20.2-13.5C690.4,1484.6,699.1,1490.4,699.1,1498.1z M745.2,1535.6
			c0,7.7-8.7,13.5-20.2,13.5c-10.6,0-20.2-5.8-20.2-13.5c0-7.7,8.7-13.5,20.2-13.5C736.6,1521.2,745.2,1527.9,745.2,1535.6z
			M809.6,1559.6c0,7.7-8.7,13.5-20.2,13.5c-10.6,0-20.2-5.8-20.2-13.5c0-7.7,8.7-13.5,20.2-13.5
			C801,1546.2,809.6,1551.9,809.6,1559.6z M874.1,1559.6c0,7.7-8.7,13.5-20.2,13.5c-10.6,0-20.2-5.8-20.2-13.5
			c0-7.7,8.7-13.5,20.2-13.5C865.4,1546.2,874.1,1551.9,874.1,1559.6z M939.5,1549c0,7.7-8.7,13.5-20.2,13.5
			c-10.6,0-20.2-5.8-20.2-13.5c0-7.7,8.7-13.5,20.2-13.5C929.9,1535.6,939.5,1541.4,939.5,1549z"/>
	</g>

	<g id="svg-logo-html5" class="svg-image">
		<path class="html5-st0" d="M463.2,2123.9L288.6,163.6h1920.1L2034,2122.9l-787,218.1"/>
		<path class="html5-st1" d="M1248.6,2174.2V324.5h784.9l-149.8,1672.4"/>
		<path class="html5-st2" d="M645.3,564.2h603.3v240.3H908.8l22.2,246.1h317.6v239.8H710.9 M721.5,1411h241.3l16.9,192.1l268.9,72V1926
			l-493.3-137.6"/>
		<path class="html5-st3" d="M1849.9,564.2h-602.3v240.3h580.1 M1805.9,1050.6h-558.4v240.3h296.4l-28.1,312.3l-268.3,72v249.8l492.2-136.5"
			/>
	</g>

	<g id="svg-logo-sass" class="svg-image">
		<path class="sass-st0" d="M0,0h2500v2500H0V0z"/>
		<path class="sass-st1" d="M1249.9,173c597,0,1081,484,1081,1081c0,597-484,1081-1081,1081c-597,0-1081-484-1081-1081
			C168.9,656.9,652.9,173,1249.9,173L1249.9,173z"/>
		<path class="sass-st2" d="M1928,635.6c-49-192-367.3-255.1-668.6-148.1c-179.3,63.7-373.4,163.7-513,294.2
			C580.5,937,554,1072.1,564.9,1128.6c38.5,199.2,311.4,329.4,423.6,426v0.6c-33.1,16.3-275.2,138.8-331.9,264.1
			c-59.8,132.2,9.5,227,55.4,239.8c142.2,39.6,288.1-31.6,366.5-148.5c75.7-112.9,69.4-258.6,36.5-331.1c45.4-12,98.2-17.3,165.4-9.5
			c189.6,22.1,226.8,140.6,219.7,190.1c-7.1,49.6-46.9,76.8-60.2,85c-13.3,8.2-17.4,11.1-16.2,17.2c1.6,8.9,7.8,8.6,19.1,6.6
			c15.6-2.6,99.6-40.3,103.2-131.8c4.6-116.1-106.7-246-303.8-242.6c-81.2,1.4-132.2,9.1-169,22.8c-2.7-3.1-5.5-6.2-8.4-9.3
			c-121.8-130-347-221.9-337.5-396.7c3.5-63.5,25.6-230.8,432.7-433.7c333.6-166.2,600.6-120.5,646.7-19.1
			c65.9,144.8-142.7,414-489.1,452.8c-132,14.8-201.5-36.4-218.8-55.4c-18.2-20.1-20.9-21-27.7-17.2c-11.1,6.1-4.1,23.8,0,34.4
			c10.3,26.9,52.8,74.6,125.1,98.4c63.7,20.9,218.6,32.4,406-40.1C1812.2,1050.3,1976.1,824.4,1928,635.6z M1035.1,1614
			c15.7,58.2,14,112.4-2.2,161.6c-1.8,5.5-3.8,10.9-5.9,16.2c-2.2,5.3-4.5,10.6-7,15.8c-12.5,26-29.3,50.3-49.9,72.8
			c-62.8,68.5-150.6,94.4-188.2,72.6c-40.6-23.6-20.3-120.2,52.5-197.1c78.3-82.8,191.1-136.1,191.1-136.1l-0.2-0.3
			C1028.4,1617.7,1031.7,1615.9,1035.1,1614z"/>
	</g>

	<g id="svg-logo-github-mono" class="svg-image">
		<path class="github-monochrome-st0" d="M1263.5,162.1C645.8,162.1,145,662.9,145,1280.6c0,494.2,320.5,913.4,764.9,1061.3
			c55.9,10.4,76.4-24.3,76.4-53.8c0-26.7-1-114.8-1.5-208.2c-311.2,67.7-376.8-132-376.8-132c-50.9-129.3-124.2-163.7-124.2-163.7
			c-101.5-69.4,7.6-68,7.6-68c112.3,7.9,171.5,115.3,171.5,115.3c99.8,171,261.7,121.6,325.5,93c10-72.3,39-121.6,71-149.6
			c-248.4-28.3-509.6-124.2-509.6-552.8c0-122.1,43.7-221.9,115.2-300.2c-11.6-28.2-49.9-141.9,10.8-296c0,0,93.9-30.1,307.7,114.7
			c89.2-24.8,184.9-37.2,280-37.6c95.1,0.4,190.8,12.8,280.2,37.6C1757.2,595.9,1850.9,626,1850.9,626c60.9,154.1,22.6,267.8,11,296
			c71.7,78.3,115.1,178.1,115.1,300.2c0,429.6-261.7,524.2-510.7,551.9c40.1,34.7,75.9,102.8,75.9,207.1c0,149.7-1.3,270.1-1.3,306.9
			c0,29.8,20.1,64.6,76.8,53.7c444.2-148.1,764.2-567.2,764.2-1061.2C2382,662.9,1881.2,162.1,1263.5,162.1"/>
		<path class="github-monochrome-st0" d="M563.9,1755.4c-2.5,5.6-11.2,7.2-19.2,3.4c-8.1-3.6-12.7-11.2-10-16.8c2.4-5.7,11.2-7.3,19.3-3.5
			C562.1,1742.2,566.7,1749.9,563.9,1755.4 M618.9,1804.5c-5.3,4.9-15.8,2.6-22.8-5.2c-7.3-7.8-8.7-18.2-3.3-23.2
			c5.5-4.9,15.6-2.6,22.9,5.2C623.1,1789.2,624.5,1799.5,618.9,1804.5 M656.7,1867.3c-6.9,4.8-18.1,0.3-25-9.6
			c-6.9-9.9-6.9-21.9,0.1-26.6c6.9-4.8,18-0.5,25,9.4C663.7,1850.5,663.7,1862.5,656.7,1867.3 M720.5,1940.1
			c-6.1,6.8-19.2,4.9-28.7-4.3c-9.8-9-12.5-21.8-6.4-28.6c6.2-6.8,19.3-4.9,29,4.3C724.1,1920.5,727,1933.4,720.5,1940.1 M803,1964.7
			c-2.7,8.8-15.3,12.7-27.9,9c-12.6-3.8-20.9-14.1-18.4-22.9c2.6-8.8,15.3-13,28-9C797.3,1945.6,805.6,1955.7,803,1964.7
			M896.9,1975.1c0.3,9.2-10.4,16.9-23.7,17c-13.4,0.3-24.2-7.2-24.3-16.2c0-9.3,10.5-16.9,23.9-17.1
			C886,1958.5,896.9,1965.9,896.9,1975.1 M989.1,1971.5c1.6,9-7.6,18.2-20.9,20.7c-13,2.4-25-3.2-26.7-12.1
			c-1.6-9.2,7.8-18.5,20.8-20.9C975.6,1957,987.4,1962.4,989.1,1971.5"/>
	</g>

	<g id="svg-logo-netlify" class="svg-image">
		<path class="st0-netlify" d="M1451.5,1585.1L919.8,1474c-2.2,4.3-4.7,8.5-7.4,12.5l484,706.1l29.2-29.2l82.3-512.1
		C1479.7,1639.4,1458.8,1614.9,1451.5,1585.1L1451.5,1585.1z M1257.5,890.1c-19.9,30.6-54.3,50.8-93.5,50.8c-6,0-11.9-0.6-17.6-1.5
		l-242.5,379.4l647.8-278.8c-0.2-2.6-0.8-5-0.8-7.7c0-5.5,0.7-10.7,1.6-16L1257.5,890.1L1257.5,890.1z M1275.1,820.9L1589,955.1
		c10-7.8,21.4-13.6,33.7-17l51.6-320.8l-196.5-196.5L1256.5,767C1267.3,783,1273.8,801.6,1275.1,820.9L1275.1,820.9z M1932.8,875.9
		l-197-197l-42.8,266c10.9,5.5,20.6,12.9,28.8,21.9L1932.8,875.9z M1460.9,1515.1c15.7-28.4,44.6-47,77-49.5l56.6-351.8
		c-4.4-2.9-8.4-6.5-12.3-10.1L930.6,1384c1.7,6.8,2.8,13.8,3.4,21L1460.9,1515.1z M1986.5,929.6l-227.9,98.1l562.3,240.4l2-2
		L1986.5,929.6L1986.5,929.6z M1579.2,1652.4l-68.5,425.8l397.7-397.7l-286.5-59.8C1611,1635.1,1596.2,1646,1579.2,1652.4z
		M806.2,1542.9c-14.4,0-28.2-2.5-41.1-6.9L633,1742.8l-51-51L707.1,1496c-3.1-3.8-6-7.8-8.6-12l-226.7,97.6l-53.7-53.7l248.1-106.8
		l-448.6-93.6l-61.4-61.4l19.4-19.4l517.3,108c5.9-11.3,13.6-21.6,22.6-30.6L464.4,957.8l50.7-50.7l262.3,382.6
		c9.4-2.2,19.1-3.3,28.7-3.4c11.1,0,21.8,1.6,32.1,4.2l245.5-384.1c-20-20.7-31.1-48.4-31.1-77.2c0-8.8,1.1-17.3,3-25.5L749.4,672.8
		l53.7-53.7l290.1,124.1c29.9-24.7,70.5-31.9,107.2-19.2l226.3-354.2L1239,182.1L155,1266l1084,1084l106.7-106.7L858,1531.9
		C841.7,1539.2,824,1542.9,806.2,1542.9L806.2,1542.9z M1663.4,1128.9l-57.6,357.7c20.3,16.3,33.1,40.2,35.5,66.2l326.6,68.2
		l299.1-299.1L1727.3,1091C1711.8,1111.6,1688.9,1125.2,1663.4,1128.9L1663.4,1128.9z"/>
	</g>

	<g id="svg-logo-react" class="svg-image">
		<path class="reactlogo-st0" d="M2435,1258.3c0-157.1-196.8-306-498.4-398.4c69.6-307.5,38.7-552.1-97.7-630.4
			c-31.4-18.4-68.2-27.1-108.3-27.1v107.8c22.2,0,40.1,4.4,55.1,12.6c65.7,37.7,94.3,181.3,72,366c-5.3,45.4-14,93.3-24.7,142.1
			c-94.8-23.2-198.2-41.1-307-52.7c-65.3-89.4-132.9-170.7-201.1-241.7c157.6-146.5,305.5-226.7,406.1-226.7V202l0,0
			c-132.9,0-307,94.8-483,259.1c-176-163.4-350-257.2-483-257.2v107.8c100.1,0,248.5,79.8,406.1,225.3
			c-67.7,71.1-135.4,151.8-199.7,241.2c-109.3,11.6-212.7,29.5-307.5,53.2c-11.1-48.3-19.3-95.2-25.1-140.2
			c-22.7-184.7,5.3-328.3,70.6-366.4c14.5-8.7,33.4-12.6,55.6-12.6V204.4l0,0c-40.6,0-77.4,8.7-109.3,27.1
			c-135.8,78.3-166.3,322.5-96.2,629C259,953.3,63.2,1101.7,63.2,1258.3c0,157.1,196.8,306,498.4,398.4
			c-69.6,307.5-38.7,552.1,97.7,630.4c31.4,18.4,68.2,27.1,108.8,27.1c132.9,0,307-94.8,483-259.1c176,163.4,350,257.2,483,257.2
			c40.6,0,77.4-8.7,109.3-27.1c135.8-78.3,166.3-322.5,96.2-629C2239.2,1563.9,2435,1415,2435,1258.3z M1805.6,935.9
			c-17.9,62.4-40.1,126.7-65.3,191c-19.8-38.7-40.6-77.4-63.3-116c-22.2-38.7-45.9-76.4-69.6-113.1
			C1676,907.8,1742.2,920.4,1805.6,935.9z M1584.1,1450.7c-37.7,65.3-76.4,127.1-116.5,184.7c-72,6.3-145,9.7-218.5,9.7
			c-73,0-146-3.4-217.5-9.2c-40.1-57.5-79.3-118.9-117-183.7c-36.7-63.3-70.1-127.6-100.6-192.4c30-64.8,63.8-129.6,100.1-192.9
			c37.7-65.3,76.4-127.1,116.5-184.7c72-6.3,145-9.7,218.5-9.7c73,0,146,3.4,217.5,9.2c40.1,57.5,79.3,118.9,117,183.7
			c36.7,63.3,70.1,127.6,100.6,192.4C1653.8,1322.6,1620.4,1387.4,1584.1,1450.7z M1740.3,1387.9c26.1,64.8,48.3,129.6,66.7,192.4
			c-63.3,15.5-130,28.5-199.2,38.7c23.7-37.2,47.4-75.4,69.6-114.6C1699.7,1465.7,1720.5,1426.6,1740.3,1387.9z M1250.1,1903.7
			c-45-46.4-89.9-98.1-134.4-154.7c43.5,1.9,88,3.4,132.9,3.4c45.4,0,90.4-1,134.4-3.4C1339.5,1805.6,1294.6,1857.3,1250.1,1903.7z
			M890.4,1619c-68.6-10.2-134.9-22.7-198.2-38.2c17.9-62.4,40.1-126.7,65.3-191c19.8,38.7,40.6,77.4,63.3,116
			S866.7,1582.2,890.4,1619z M1247.7,612.9c45,46.4,89.9,98.1,134.4,154.7c-43.5-1.9-88-3.4-132.9-3.4c-45.4,0-90.4,1-134.4,3.4
			C1158.2,711.1,1203.2,659.3,1247.7,612.9z M889.9,897.7c-23.7,37.2-47.4,75.4-69.6,114.6c-22.2,38.7-43,77.4-62.8,116
			c-26.1-64.8-48.3-129.6-66.7-192.4C754.1,920.9,820.8,907.8,889.9,897.7z M452.4,1502.9c-171.1-73-281.8-168.7-281.8-244.6
			s110.7-172.1,281.8-244.6c41.6-17.9,87-33.8,133.9-48.8c27.6,94.8,63.8,193.4,108.8,294.4c-44.5,100.6-80.3,198.7-107.3,293
			C539.9,1537.3,494.5,1520.8,452.4,1502.9z M712.5,2193.8c-65.7-37.7-94.3-181.3-72-366c5.3-45.4,14-93.3,24.7-142.1
			c94.8,23.2,198.2,41.1,307,52.7c65.3,89.4,132.9,170.7,201.1,241.7c-157.6,146.5-305.5,226.7-406.1,226.7
			C745.4,2206.4,727,2202,712.5,2193.8z M1859.2,1825.4c22.7,184.7-5.3,328.3-70.6,366.4c-14.5,8.7-33.4,12.6-55.6,12.6
			c-100.1,0-248.5-79.8-406.1-225.3c67.7-71.1,135.4-151.8,199.7-241.2c109.3-11.6,212.7-29.5,307.5-53.2
			C1845.2,1733.5,1853.9,1780.4,1859.2,1825.4z M2045.3,1502.9c-41.6,17.9-87,33.8-133.9,48.8c-27.6-94.8-63.8-193.4-108.8-294.4
			c44.5-100.6,80.3-198.7,107.3-293c47.9,15,93.3,31.4,135.8,49.3c171.1,73,281.8,168.7,281.8,244.6
			C2327.2,1334.2,2216.5,1430.4,2045.3,1502.9z"/>
		<path class="st0" d="M764.7,203.9L764.7,203.9L764.7,203.9z"/>
		<circle class="st0" cx="1248.6" cy="1258.3" r="220.9"/>
		<path class="st0" d="M1730.1,202.5L1730.1,202.5L1730.1,202.5z"/>
	</g>

	<g id="svg-logo-prismic" class="svg-image">
		<path style="fill:#689FF2;" d="M837.11,475.899l-100.145,0c-74.257,-0.129 -145.507,29.312 -198.015,81.82c-52.504,52.508 -81.945,123.758 -81.82,198.012l0,819.664c91.851,54.023 194.062,88.082 299.96,99.953c-12.542,-24.859 -19.417,-52.188 -20.125,-80.02l0,-659.718c-9.968,-9.965 -9.968,-249.836 100.047,-459.711l0.098,0Zm1189.29,379.785l0,-99.953c0.125,-74.254 -29.316,-145.504 -81.82,-198.012c-52.508,-52.508 -123.758,-81.949 -198.016,-81.82l-809.598,0c-53.98,91.828 -88.007,194.004 -99.859,299.863c20.125,-20.031 50.023,-20.031 80.02,-20.031l649.75,0c9.968,0 249.839,0 459.714,99.953l-0.191,0Zm-389.754,1189.48l99.953,0c74.254,0.129 145.504,-29.312 198.012,-81.82c52.508,-52.508 81.949,-123.758 81.82,-198.012l0,-809.793c-91.851,-54.023 -194.058,-88.082 -299.957,-99.953c20.125,20.027 20.125,49.93 20.125,79.926l0,649.75c0,9.965 0,249.836 -99.953,459.809l0,0.093Zm-1189.48,-389.847l0,99.953c-0.129,74.254 29.312,145.504 81.82,198.011c52.508,52.508 123.758,81.95 198.012,81.821l809.601,0c54.012,-91.821 88.071,-193.996 99.953,-299.864c-19.933,20.032 -49.929,20.032 -79.925,20.032l-649.559,0c-9.965,0 -249.836,0 -459.711,-99.953l-0.191,0Zm909.648,-1549.24l-719.707,0c-299.863,0 -549.699,249.836 -549.699,549.7c0,0 20.027,529.765 229.902,779.605c9.969,20.027 29.996,29.996 49.93,50.024l0,-739.641c-0.254,-98.188 38.637,-192.426 108.062,-261.856c69.43,-69.425 163.668,-108.316 261.856,-108.062l159.848,0c29.996,-39.961 59.992,-69.957 89.988,-99.859c89.988,-69.957 229.906,-129.95 369.918,-169.911l-0.098,0Zm1029.54,1269.41l0,-719.707c0,-299.864 -249.84,-549.7 -549.699,-549.7c0,0 -529.77,19.934 -779.703,229.809c-21.27,11.305 -38.66,28.73 -49.926,50.023l739.641,0c98.152,-0.23 192.351,38.661 261.758,108.067c69.402,69.402 108.292,163.601 108.062,261.754l0,159.945c39.961,29.996 69.957,59.992 99.953,89.988c69.961,89.891 129.949,229.809 169.914,369.821Zm-1269.41,1029.44l719.711,0c299.766,0 549.699,-249.836 549.699,-549.699c0,0 -20.031,-529.766 -229.906,-779.606c-9.965,-20.027 -29.996,-29.992 -49.926,-50.023l0,739.641c0.254,98.187 -38.637,192.425 -108.066,261.855c-69.43,69.426 -163.668,108.316 -261.852,108.063l-159.851,0c-29.996,39.96 -59.993,69.957 -89.989,99.859c-89.984,69.957 -229.902,129.949 -369.914,169.91l0.094,0Zm-1029.54,-1269.31l0,719.613c0,299.863 249.836,549.699 549.699,549.699c0,0 529.766,-19.934 779.699,-229.809c19.934,-10.062 29.996,-29.996 49.93,-50.023l-729.676,0c-98.152,0.231 -192.351,-38.66 -261.754,-108.062c-69.406,-69.407 -108.297,-163.606 -108.066,-261.758l0,-159.946c-39.961,-29.996 -69.957,-59.992 -99.953,-89.988c-79.926,-89.89 -139.918,-229.808 -179.879,-369.726Z" />
	</g>

	<g id="svg-logo-node" class="svg-image">
		<g transform="matrix(4.0687,0,0,4.0687,46.0843,514.844)">
				<path d="M291.53,361.239C289.583,361.239 287.65,360.729 285.943,359.746L268.16,349.218C265.504,347.733 266.8,347.207 267.676,346.905C271.218,345.665 271.936,345.385 275.716,343.238C276.114,343.011 276.634,343.091 277.04,343.331L290.702,351.438C291.195,351.705 291.895,351.705 292.352,351.438L345.619,320.691C346.112,320.411 346.432,319.838 346.432,319.251L346.432,257.785C346.432,257.172 346.112,256.625 345.608,256.318L292.363,225.598C291.87,225.305 291.216,225.305 290.723,225.598L237.488,256.318C236.972,256.612 236.644,257.185 236.644,257.772L236.644,319.238C236.644,319.825 236.964,320.385 237.471,320.665L252.058,329.091C259.978,333.051 264.818,328.385 264.818,323.691L264.818,263.025C264.818,262.158 265.498,261.492 266.364,261.492L273.111,261.492C273.951,261.492 274.644,262.158 274.644,263.025L274.644,323.718C274.644,334.278 268.884,340.345 258.871,340.345C255.791,340.345 253.364,340.345 246.591,337.011L232.618,328.958C229.164,326.958 227.031,323.225 227.031,319.238L227.031,257.772C227.031,253.772 229.164,250.038 232.618,248.065L285.938,217.305C289.311,215.398 293.791,215.398 297.137,217.305L350.391,248.078C353.831,250.065 355.977,253.785 355.977,257.785L355.977,319.251C355.977,323.238 353.831,326.958 350.391,328.958L297.137,359.718C295.431,360.705 293.498,361.211 291.524,361.211" style="fill:rgb(104,159,99);fill-rule:nonzero;"/>
		</g>
		<g transform="matrix(4.0687,0,0,4.0687,46.0843,514.844)">
				<path d="M307.983,318.885C284.676,318.885 279.79,308.186 279.79,299.213C279.79,298.359 280.478,297.679 281.332,297.679L288.212,297.679C288.972,297.679 289.612,298.233 289.732,298.983C290.772,305.994 293.866,309.53 307.959,309.53C319.185,309.53 323.959,306.994 323.959,301.041C323.959,297.614 322.599,295.067 305.159,293.361C290.572,291.921 281.559,288.707 281.559,277.041C281.559,266.294 290.626,259.894 305.812,259.894C322.865,259.894 331.319,265.814 332.385,278.534C332.425,278.974 332.265,279.401 331.972,279.721C331.679,280.027 331.265,280.214 330.839,280.214L323.919,280.214C323.199,280.214 322.572,279.707 322.425,279.014C320.759,271.641 316.732,269.281 305.785,269.281C293.532,269.281 292.106,273.547 292.106,276.747C292.106,280.627 293.786,281.761 310.319,283.947C326.692,286.121 334.465,289.187 334.465,300.694C334.465,312.294 324.785,318.947 307.905,318.947M372.785,253.761L374.572,253.761C376.039,253.761 376.319,252.734 376.319,252.134C376.319,250.561 375.239,250.561 374.639,250.561L372.799,250.561L372.785,253.761ZM370.612,248.721L374.572,248.721C375.932,248.721 378.599,248.721 378.599,251.761C378.599,253.881 377.239,254.321 376.425,254.588C378.012,254.694 378.119,255.734 378.332,257.201C378.439,258.121 378.612,259.708 378.932,260.241L376.492,260.241C376.425,259.708 376.052,256.774 376.052,256.614C375.892,255.961 375.665,255.641 374.852,255.641L372.839,255.641L372.839,260.254L370.612,260.254L370.612,248.721ZM365.852,254.454C365.852,259.228 369.705,263.094 374.439,263.094C379.212,263.094 383.065,259.148 383.065,254.454C383.065,249.668 379.159,245.868 374.425,245.868C369.759,245.868 365.839,249.614 365.839,254.441M384.719,254.481C384.719,260.134 380.092,264.748 374.452,264.748C368.852,264.748 364.185,260.188 364.185,254.481C364.185,248.668 368.959,244.214 374.452,244.214C379.985,244.214 384.705,248.681 384.705,254.481" style="fill:rgb(104,159,99);fill-rule:nonzero;"/>
		</g>
		<g transform="matrix(4.0687,0,0,4.0687,46.0843,514.844)">
				<path d="M126.582,120.733C126.582,118.28 125.288,116.026 123.171,114.806L66.697,82.313C65.743,81.753 64.675,81.46 63.593,81.42L63.009,81.42C61.926,81.46 60.858,81.753 59.889,82.313L3.417,114.806C1.313,116.033 0.001,118.286 0.001,120.74L0.125,208.26C0.125,209.473 0.751,210.606 1.818,211.206C2.858,211.846 4.165,211.846 5.205,211.206L38.778,191.98C40.898,190.718 42.191,188.489 42.191,186.06L42.191,145.173C42.191,142.733 43.485,140.48 45.598,139.266L59.891,131.034C60.953,130.421 62.118,130.117 63.305,130.117C64.473,130.117 65.665,130.418 66.697,131.033L80.983,139.262C83.098,140.476 84.397,142.729 84.397,145.169L84.397,186.053C84.397,188.48 85.707,190.72 87.817,191.973L121.368,211.186C122.422,211.813 123.732,211.813 124.782,211.186C125.816,210.586 126.472,209.453 126.472,208.24L126.582,120.733ZM393.072,166.301C393.072,166.91 392.748,167.474 392.219,167.776L372.821,178.957C372.295,179.26 371.644,179.26 371.119,178.957L351.719,167.776C351.185,167.473 350.865,166.909 350.865,166.301L350.865,143.906C350.865,143.296 351.185,142.733 351.705,142.426L371.092,131.226C371.625,130.92 372.279,130.92 372.812,131.226L392.212,142.426C392.745,142.733 393.065,143.296 393.065,143.906L393.072,166.301ZM398.312,0.432C397.253,-0.157 395.965,-0.141 394.92,0.468C393.88,1.081 393.237,2.201 393.237,3.415L393.237,90.081C393.237,90.934 392.784,91.721 392.045,92.148C391.312,92.574 390.399,92.574 389.659,92.148L375.512,84C373.405,82.781 370.811,82.781 368.696,84L312.203,116.604C310.092,117.817 308.789,120.07 308.789,122.497L308.789,187.724C308.789,190.164 310.092,192.404 312.203,193.63L368.696,226.257C370.805,227.47 373.403,227.47 375.519,226.257L432.012,193.617C434.119,192.39 435.425,190.15 435.425,187.71L435.425,25.151C435.425,22.676 434.079,20.4 431.919,19.191L398.312,0.432ZM586.436,143.317C588.534,142.098 589.826,139.848 589.826,137.421L589.826,121.613C589.826,119.181 588.533,116.937 586.43,115.713L530.297,83.127C528.177,81.9 525.577,81.9 523.457,83.127L466.977,115.726C464.857,116.953 463.564,119.193 463.564,121.633L463.564,186.833C463.564,189.286 464.884,191.553 467.004,192.766L523.124,224.753C525.19,225.94 527.724,225.953 529.817,224.793L563.764,205.926C564.83,205.326 565.51,204.193 565.51,202.966C565.51,201.74 564.857,200.593 563.79,199.993L506.964,167.38C505.897,166.78 505.244,165.646 505.244,164.433L505.244,143.98C505.244,142.758 505.884,141.633 506.95,141.025L524.63,130.825C525.684,130.212 526.977,130.212 528.03,130.825L545.724,141.025C546.777,141.625 547.43,142.758 547.43,143.972L547.43,160.052C547.43,161.265 548.084,162.398 549.137,163.012C550.19,163.612 551.497,163.612 552.55,162.998L586.436,143.317Z" style="fill:rgb(51,51,51);"/>
		</g>
		<g transform="matrix(4.0687,0,0,4.0687,46.0843,514.844)">
				<path d="M526.05,140.266C526.45,140.03 526.952,140.03 527.357,140.266L538.197,146.52C538.602,146.754 538.85,147.186 538.85,147.653L538.85,160.173C538.85,160.64 538.602,161.072 538.197,161.306L527.357,167.56C526.952,167.796 526.45,167.796 526.05,167.56L515.217,161.306C514.804,161.072 514.55,160.64 514.55,160.173L514.55,147.653C514.55,147.186 514.79,146.754 515.204,146.52L526.05,140.266Z" style="fill:rgb(104,159,99);"/>
		</g>
		<g transform="matrix(4.0687,0,0,4.0687,-378.72,-374.931)">
				<clipPath id="_clip1">
						<path d="M318.707,302.139L262.534,334.562C260.43,335.775 259.139,338.015 259.139,340.437L259.139,405.327C259.139,407.75 260.43,409.989 262.534,411.202L318.711,443.65C320.811,444.859 323.4,444.859 325.497,443.65L381.665,411.202C383.759,409.989 385.052,407.749 385.052,405.327L385.052,340.437C385.052,338.015 383.759,335.775 381.652,334.562L325.492,302.139C324.439,301.535 323.265,301.233 322.092,301.233C320.919,301.233 319.745,301.535 318.692,302.139"/>
				</clipPath>
				<g clip-path="url(#_clip1)">
						<path d="M441.817,329.057L283.531,251.47L202.371,417.035L360.653,494.626L441.817,329.057Z" style="fill:url(#_Linear2);fill-rule:nonzero;"/>
				</g>
		</g>
		<g transform="matrix(4.0687,0,0,4.0687,-378.72,-374.931)">
				<clipPath id="_clip3">
						<path d="M260.531,409.447C261.068,410.145 261.74,410.749 262.531,411.202L310.717,439.035L318.744,443.649C319.944,444.342 321.312,444.635 322.656,444.535C323.104,444.499 323.552,444.415 323.989,444.291L383.235,335.811C382.781,335.318 382.251,334.905 381.656,334.558L344.875,313.318L325.432,302.131C324.88,301.811 324.281,301.585 323.672,301.425L260.531,409.447Z"/>
				</clipPath>
				<g clip-path="url(#_clip3)">
						<path d="M192.094,352.005L303.86,503.275L451.673,394.067L339.9,242.801L192.094,352.005Z" style="fill:url(#_Linear4);fill-rule:nonzero;"/>
				</g>
		</g>
		<g transform="matrix(4.0687,0,0,4.0687,-378.72,-374.931)">
				<clipPath id="_clip5">
						<path d="M321.421,301.27C320.479,301.363 319.557,301.657 318.708,302.139L262.695,334.469L323.095,444.482C323.935,444.362 324.761,444.082 325.508,443.65L381.681,411.202C383.415,410.197 384.601,408.495 384.961,406.567L323.388,301.381C322.935,301.291 322.481,301.245 322.015,301.245C321.828,301.245 321.641,301.254 321.455,301.271"/>
				</clipPath>
				<g clip-path="url(#_clip5)">
						<rect x="262.694" y="301.245" width="122.244" height="143.24" style="fill:url(#_Linear6);fill-rule:nonzero;"/>
				</g>
		</g>
		<defs>
				<linearGradient id="_Linear2" x1="0" y1="0" x2="1" y2="0" gradientUnits="userSpaceOnUse" gradientTransform="matrix(-81.1542,165.554,-165.554,-81.1542,-19164.6,-9282)"><stop offset="0" style="stop-color:rgb(62,134,61);stop-opacity:1"/><stop offset="0.3" style="stop-color:rgb(62,134,61);stop-opacity:1"/><stop offset="0.5" style="stop-color:rgb(85,147,79);stop-opacity:1"/><stop offset="0.8" style="stop-color:rgb(90,173,69);stop-opacity:1"/><stop offset="1" style="stop-color:rgb(90,173,69);stop-opacity:1"/></linearGradient>
				<linearGradient id="_Linear4" x1="0" y1="0" x2="1" y2="0" gradientUnits="userSpaceOnUse" gradientTransform="matrix(147.819,-109.221,109.221,147.819,19409.8,26361)"><stop offset="0" style="stop-color:rgb(62,134,61);stop-opacity:1"/><stop offset="0.57" style="stop-color:rgb(62,134,61);stop-opacity:1"/><stop offset="0.72" style="stop-color:rgb(97,152,87);stop-opacity:1"/><stop offset="1" style="stop-color:rgb(118,172,100);stop-opacity:1"/></linearGradient>
				<linearGradient id="_Linear6" x1="0" y1="0" x2="1" y2="0" gradientUnits="userSpaceOnUse" gradientTransform="matrix(122.226,0,0,122.226,262.803,29719.2)"><stop offset="0" style="stop-color:rgb(107,191,71);stop-opacity:1"/><stop offset="0.16" style="stop-color:rgb(107,191,71);stop-opacity:1"/><stop offset="0.38" style="stop-color:rgb(121,180,97);stop-opacity:1"/><stop offset="0.47" style="stop-color:rgb(117,172,100);stop-opacity:1"/><stop offset="0.7" style="stop-color:rgb(101,158,90);stop-opacity:1"/><stop offset="0.9" style="stop-color:rgb(62,134,61);stop-opacity:1"/><stop offset="1" style="stop-color:rgb(62,134,61);stop-opacity:1"/></linearGradient>
		</defs>
	</g>

</svg>
