<svg version="1.1" id="Layer_1" xmlns="http://www.w3.org/2000/svg" xmlns:xlink="http://www.w3.org/1999/xlink" x="0px" y="0px" viewBox="0 0 2500 2500" style="enable-background:new 0 0 2500 2500;" xml:space="preserve">

	<g>
		<path class="reactlogo-st0" fill="#61DAFB" d="M2435,1258.3c0-157.1-196.8-306-498.4-398.4c69.6-307.5,38.7-552.1-97.7-630.4
			c-31.4-18.4-68.2-27.1-108.3-27.1v107.8c22.2,0,40.1,4.4,55.1,12.6c65.7,37.7,94.3,181.3,72,366c-5.3,45.4-14,93.3-24.7,142.1
			c-94.8-23.2-198.2-41.1-307-52.7c-65.3-89.4-132.9-170.7-201.1-241.7c157.6-146.5,305.5-226.7,406.1-226.7V202l0,0
			c-132.9,0-307,94.8-483,259.1c-176-163.4-350-257.2-483-257.2v107.8c100.1,0,248.5,79.8,406.1,225.3
			c-67.7,71.1-135.4,151.8-199.7,241.2c-109.3,11.6-212.7,29.5-307.5,53.2c-11.1-48.3-19.3-95.2-25.1-140.2
			c-22.7-184.7,5.3-328.3,70.6-366.4c14.5-8.7,33.4-12.6,55.6-12.6V204.4l0,0c-40.6,0-77.4,8.7-109.3,27.1
			c-135.8,78.3-166.3,322.5-96.2,629C259,953.3,63.2,1101.7,63.2,1258.3c0,157.1,196.8,306,498.4,398.4
			c-69.6,307.5-38.7,552.1,97.7,630.4c31.4,18.4,68.2,27.1,108.8,27.1c132.9,0,307-94.8,483-259.1c176,163.4,350,257.2,483,257.2
			c40.6,0,77.4-8.7,109.3-27.1c135.8-78.3,166.3-322.5,96.2-629C2239.2,1563.9,2435,1415,2435,1258.3z M1805.6,935.9
			c-17.9,62.4-40.1,126.7-65.3,191c-19.8-38.7-40.6-77.4-63.3-116c-22.2-38.7-45.9-76.4-69.6-113.1
			C1676,907.8,1742.2,920.4,1805.6,935.9z M1584.1,1450.7c-37.7,65.3-76.4,127.1-116.5,184.7c-72,6.3-145,9.7-218.5,9.7
			c-73,0-146-3.4-217.5-9.2c-40.1-57.5-79.3-118.9-117-183.7c-36.7-63.3-70.1-127.6-100.6-192.4c30-64.8,63.8-129.6,100.1-192.9
			c37.7-65.3,76.4-127.1,116.5-184.7c72-6.3,145-9.7,218.5-9.7c73,0,146,3.4,217.5,9.2c40.1,57.5,79.3,118.9,117,183.7
			c36.7,63.3,70.1,127.6,100.6,192.4C1653.8,1322.6,1620.4,1387.4,1584.1,1450.7z M1740.3,1387.9c26.1,64.8,48.3,129.6,66.7,192.4
			c-63.3,15.5-130,28.5-199.2,38.7c23.7-37.2,47.4-75.4,69.6-114.6C1699.7,1465.7,1720.5,1426.6,1740.3,1387.9z M1250.1,1903.7
			c-45-46.4-89.9-98.1-134.4-154.7c43.5,1.9,88,3.4,132.9,3.4c45.4,0,90.4-1,134.4-3.4C1339.5,1805.6,1294.6,1857.3,1250.1,1903.7z
			M890.4,1619c-68.6-10.2-134.9-22.7-198.2-38.2c17.9-62.4,40.1-126.7,65.3-191c19.8,38.7,40.6,77.4,63.3,116
			S866.7,1582.2,890.4,1619z M1247.7,612.9c45,46.4,89.9,98.1,134.4,154.7c-43.5-1.9-88-3.4-132.9-3.4c-45.4,0-90.4,1-134.4,3.4
			C1158.2,711.1,1203.2,659.3,1247.7,612.9z M889.9,897.7c-23.7,37.2-47.4,75.4-69.6,114.6c-22.2,38.7-43,77.4-62.8,116
			c-26.1-64.8-48.3-129.6-66.7-192.4C754.1,920.9,820.8,907.8,889.9,897.7z M452.4,1502.9c-171.1-73-281.8-168.7-281.8-244.6
			s110.7-172.1,281.8-244.6c41.6-17.9,87-33.8,133.9-48.8c27.6,94.8,63.8,193.4,108.8,294.4c-44.5,100.6-80.3,198.7-107.3,293
			C539.9,1537.3,494.5,1520.8,452.4,1502.9z M712.5,2193.8c-65.7-37.7-94.3-181.3-72-366c5.3-45.4,14-93.3,24.7-142.1
			c94.8,23.2,198.2,41.1,307,52.7c65.3,89.4,132.9,170.7,201.1,241.7c-157.6,146.5-305.5,226.7-406.1,226.7
			C745.4,2206.4,727,2202,712.5,2193.8z M1859.2,1825.4c22.7,184.7-5.3,328.3-70.6,366.4c-14.5,8.7-33.4,12.6-55.6,12.6
			c-100.1,0-248.5-79.8-406.1-225.3c67.7-71.1,135.4-151.8,199.7-241.2c109.3-11.6,212.7-29.5,307.5-53.2
			C1845.2,1733.5,1853.9,1780.4,1859.2,1825.4z M2045.3,1502.9c-41.6,17.9-87,33.8-133.9,48.8c-27.6-94.8-63.8-193.4-108.8-294.4
			c44.5-100.6,80.3-198.7,107.3-293c47.9,15,93.3,31.4,135.8,49.3c171.1,73,281.8,168.7,281.8,244.6
			C2327.2,1334.2,2216.5,1430.4,2045.3,1502.9z"/>
		<path class="st0" d="M764.7,203.9L764.7,203.9L764.7,203.9z"/>
		<circle class="st0" cx="1248.6" cy="1258.3" r="220.9"/>
		<path class="st0" d="M1730.1,202.5L1730.1,202.5L1730.1,202.5z"/>
	</g>

</svg>